ISO-10303-21;
HEADER;
/* Generated by software containing ST-Developer
 * from STEP Tools, Inc. (www.steptools.com) 
 */
/* OPTION: using custom renumber hook */

FILE_DESCRIPTION(
/* description */ ('STEP AP242 Edition 2',
'CAx-IF Rec.Pracs.---Representation and Presentation of Product Manufa
cturing Information (PMI)---4.0---2014-10-13',
'CAx-IF Rec.Pracs.---3D Tessellated Geometry---0.4---2014-09-14','2;1',
'CAx-IF Rec.Pracs.---User Defined Attributes---1.5---2016-08-15'),
/* implementation_level */ '2;1');

FILE_NAME(
/* name */ 'Part Studio 1 - Part 2',
/* time_stamp */ '2026-04-17T23:22:05Z',
/* author */ (''),
/* organization */ (''),
/* preprocessor_version */ 'ST-DEVELOPER v20',
/* originating_system */ 'ONSHAPE BY PTC INC, 1.213',
/* authorisation */ '  ');

FILE_SCHEMA (('AP242_MANAGED_MODEL_BASED_3D_ENGINEERING_MIM_LF { 1 0 10303 442 3 1 4 }'));
ENDSEC;

DATA;
#10=SHAPE_REPRESENTATION_RELATIONSHIP('','',#435,#11);
#11=ADVANCED_BREP_SHAPE_REPRESENTATION('',(#433),#729);
#12=CIRCLE('',#445,0.0016);
#13=CIRCLE('',#446,0.0016);
#14=CIRCLE('',#448,0.0016);
#15=CIRCLE('',#449,0.0016);
#16=CIRCLE('',#451,0.0016);
#17=CIRCLE('',#452,0.0016);
#18=CIRCLE('',#454,0.0016);
#19=CIRCLE('',#455,0.0016);
#20=CIRCLE('',#458,0.00075);
#21=CIRCLE('',#459,0.00075);
#22=CIRCLE('',#460,0.00075);
#23=CIRCLE('',#461,0.00075);
#24=CIRCLE('',#462,0.00075);
#25=CIRCLE('',#463,0.00075);
#26=CIRCLE('',#464,0.00075);
#27=CIRCLE('',#465,0.00075);
#28=CIRCLE('',#467,0.00075);
#29=CIRCLE('',#468,0.00075);
#30=CIRCLE('',#469,0.00075);
#31=CIRCLE('',#470,0.00075);
#32=CIRCLE('',#471,0.00075);
#33=CIRCLE('',#472,0.00075);
#34=CIRCLE('',#473,0.00075);
#35=CIRCLE('',#474,0.00075);
#36=CYLINDRICAL_SURFACE('',#444,0.0016);
#37=CYLINDRICAL_SURFACE('',#447,0.0016);
#38=CYLINDRICAL_SURFACE('',#450,0.0016);
#39=CYLINDRICAL_SURFACE('',#453,0.0016);
#40=CYLINDRICAL_SURFACE('',#475,0.00075);
#41=CYLINDRICAL_SURFACE('',#476,0.00075);
#42=CYLINDRICAL_SURFACE('',#477,0.00075);
#43=CYLINDRICAL_SURFACE('',#478,0.00075);
#44=CYLINDRICAL_SURFACE('',#479,0.00075);
#45=CYLINDRICAL_SURFACE('',#480,0.00075);
#46=CYLINDRICAL_SURFACE('',#481,0.00075);
#47=CYLINDRICAL_SURFACE('',#482,0.00075);
#48=ORIENTED_EDGE('',*,*,#160,.T.);
#49=ORIENTED_EDGE('',*,*,#161,.T.);
#50=ORIENTED_EDGE('',*,*,#162,.F.);
#51=ORIENTED_EDGE('',*,*,#163,.T.);
#52=ORIENTED_EDGE('',*,*,#164,.T.);
#53=ORIENTED_EDGE('',*,*,#165,.T.);
#54=ORIENTED_EDGE('',*,*,#166,.F.);
#55=ORIENTED_EDGE('',*,*,#167,.T.);
#56=ORIENTED_EDGE('',*,*,#168,.T.);
#57=ORIENTED_EDGE('',*,*,#169,.T.);
#58=ORIENTED_EDGE('',*,*,#170,.F.);
#59=ORIENTED_EDGE('',*,*,#171,.T.);
#60=ORIENTED_EDGE('',*,*,#172,.F.);
#61=ORIENTED_EDGE('',*,*,#173,.T.);
#62=ORIENTED_EDGE('',*,*,#174,.T.);
#63=ORIENTED_EDGE('',*,*,#175,.T.);
#64=ORIENTED_EDGE('',*,*,#176,.F.);
#65=ORIENTED_EDGE('',*,*,#177,.T.);
#66=ORIENTED_EDGE('',*,*,#178,.T.);
#67=ORIENTED_EDGE('',*,*,#179,.T.);
#68=ORIENTED_EDGE('',*,*,#180,.T.);
#69=ORIENTED_EDGE('',*,*,#181,.T.);
#70=ORIENTED_EDGE('',*,*,#182,.F.);
#71=ORIENTED_EDGE('',*,*,#183,.T.);
#72=ORIENTED_EDGE('',*,*,#184,.F.);
#73=ORIENTED_EDGE('',*,*,#185,.T.);
#74=ORIENTED_EDGE('',*,*,#186,.T.);
#75=ORIENTED_EDGE('',*,*,#187,.T.);
#76=ORIENTED_EDGE('',*,*,#188,.T.);
#77=ORIENTED_EDGE('',*,*,#189,.F.);
#78=ORIENTED_EDGE('',*,*,#190,.T.);
#79=ORIENTED_EDGE('',*,*,#191,.F.);
#80=ORIENTED_EDGE('',*,*,#192,.T.);
#81=ORIENTED_EDGE('',*,*,#193,.F.);
#82=ORIENTED_EDGE('',*,*,#194,.T.);
#83=ORIENTED_EDGE('',*,*,#195,.F.);
#84=ORIENTED_EDGE('',*,*,#196,.T.);
#85=ORIENTED_EDGE('',*,*,#197,.T.);
#86=ORIENTED_EDGE('',*,*,#198,.F.);
#87=ORIENTED_EDGE('',*,*,#199,.T.);
#88=ORIENTED_EDGE('',*,*,#194,.F.);
#89=ORIENTED_EDGE('',*,*,#192,.F.);
#90=ORIENTED_EDGE('',*,*,#190,.F.);
#91=ORIENTED_EDGE('',*,*,#188,.F.);
#92=ORIENTED_EDGE('',*,*,#174,.F.);
#93=ORIENTED_EDGE('',*,*,#200,.T.);
#94=ORIENTED_EDGE('',*,*,#176,.T.);
#95=ORIENTED_EDGE('',*,*,#201,.T.);
#96=ORIENTED_EDGE('',*,*,#182,.T.);
#97=ORIENTED_EDGE('',*,*,#202,.T.);
#98=ORIENTED_EDGE('',*,*,#186,.F.);
#99=ORIENTED_EDGE('',*,*,#203,.T.);
#100=ORIENTED_EDGE('',*,*,#160,.F.);
#101=ORIENTED_EDGE('',*,*,#204,.T.);
#102=ORIENTED_EDGE('',*,*,#166,.T.);
#103=ORIENTED_EDGE('',*,*,#205,.T.);
#104=ORIENTED_EDGE('',*,*,#170,.T.);
#105=ORIENTED_EDGE('',*,*,#206,.T.);
#106=ORIENTED_EDGE('',*,*,#196,.F.);
#107=ORIENTED_EDGE('',*,*,#207,.T.);
#108=ORIENTED_EDGE('',*,*,#195,.T.);
#109=ORIENTED_EDGE('',*,*,#193,.T.);
#110=ORIENTED_EDGE('',*,*,#191,.T.);
#111=ORIENTED_EDGE('',*,*,#189,.T.);
#112=ORIENTED_EDGE('',*,*,#178,.F.);
#113=ORIENTED_EDGE('',*,*,#208,.T.);
#114=ORIENTED_EDGE('',*,*,#172,.T.);
#115=ORIENTED_EDGE('',*,*,#209,.T.);
#116=ORIENTED_EDGE('',*,*,#184,.T.);
#117=ORIENTED_EDGE('',*,*,#210,.T.);
#118=ORIENTED_EDGE('',*,*,#180,.F.);
#119=ORIENTED_EDGE('',*,*,#211,.T.);
#120=ORIENTED_EDGE('',*,*,#164,.F.);
#121=ORIENTED_EDGE('',*,*,#212,.T.);
#122=ORIENTED_EDGE('',*,*,#162,.T.);
#123=ORIENTED_EDGE('',*,*,#213,.T.);
#124=ORIENTED_EDGE('',*,*,#198,.T.);
#125=ORIENTED_EDGE('',*,*,#214,.T.);
#126=ORIENTED_EDGE('',*,*,#168,.F.);
#127=ORIENTED_EDGE('',*,*,#215,.T.);
#128=ORIENTED_EDGE('',*,*,#206,.F.);
#129=ORIENTED_EDGE('',*,*,#169,.F.);
#130=ORIENTED_EDGE('',*,*,#214,.F.);
#131=ORIENTED_EDGE('',*,*,#197,.F.);
#132=ORIENTED_EDGE('',*,*,#207,.F.);
#133=ORIENTED_EDGE('',*,*,#199,.F.);
#134=ORIENTED_EDGE('',*,*,#213,.F.);
#135=ORIENTED_EDGE('',*,*,#161,.F.);
#136=ORIENTED_EDGE('',*,*,#205,.F.);
#137=ORIENTED_EDGE('',*,*,#165,.F.);
#138=ORIENTED_EDGE('',*,*,#215,.F.);
#139=ORIENTED_EDGE('',*,*,#171,.F.);
#140=ORIENTED_EDGE('',*,*,#204,.F.);
#141=ORIENTED_EDGE('',*,*,#163,.F.);
#142=ORIENTED_EDGE('',*,*,#212,.F.);
#143=ORIENTED_EDGE('',*,*,#167,.F.);
#144=ORIENTED_EDGE('',*,*,#200,.F.);
#145=ORIENTED_EDGE('',*,*,#173,.F.);
#146=ORIENTED_EDGE('',*,*,#208,.F.);
#147=ORIENTED_EDGE('',*,*,#177,.F.);
#148=ORIENTED_EDGE('',*,*,#203,.F.);
#149=ORIENTED_EDGE('',*,*,#185,.F.);
#150=ORIENTED_EDGE('',*,*,#209,.F.);
#151=ORIENTED_EDGE('',*,*,#175,.F.);
#152=ORIENTED_EDGE('',*,*,#202,.F.);
#153=ORIENTED_EDGE('',*,*,#181,.F.);
#154=ORIENTED_EDGE('',*,*,#210,.F.);
#155=ORIENTED_EDGE('',*,*,#187,.F.);
#156=ORIENTED_EDGE('',*,*,#201,.F.);
#157=ORIENTED_EDGE('',*,*,#179,.F.);
#158=ORIENTED_EDGE('',*,*,#211,.F.);
#159=ORIENTED_EDGE('',*,*,#183,.F.);
#160=EDGE_CURVE('',#216,#217,#256,.T.);
#161=EDGE_CURVE('',#217,#218,#257,.T.);
#162=EDGE_CURVE('',#219,#218,#258,.T.);
#163=EDGE_CURVE('',#219,#216,#259,.F.);
#164=EDGE_CURVE('',#220,#221,#260,.T.);
#165=EDGE_CURVE('',#221,#222,#261,.F.);
#166=EDGE_CURVE('',#223,#222,#262,.T.);
#167=EDGE_CURVE('',#223,#220,#263,.T.);
#168=EDGE_CURVE('',#224,#225,#264,.T.);
#169=EDGE_CURVE('',#225,#226,#265,.F.);
#170=EDGE_CURVE('',#227,#226,#266,.T.);
#171=EDGE_CURVE('',#227,#224,#267,.T.);
#172=EDGE_CURVE('',#228,#229,#268,.T.);
#173=EDGE_CURVE('',#228,#230,#269,.F.);
#174=EDGE_CURVE('',#230,#231,#270,.T.);
#175=EDGE_CURVE('',#231,#229,#271,.T.);
#176=EDGE_CURVE('',#232,#233,#272,.T.);
#177=EDGE_CURVE('',#232,#234,#273,.T.);
#178=EDGE_CURVE('',#234,#235,#274,.T.);
#179=EDGE_CURVE('',#235,#233,#275,.F.);
#180=EDGE_CURVE('',#236,#237,#276,.T.);
#181=EDGE_CURVE('',#237,#238,#277,.F.);
#182=EDGE_CURVE('',#239,#238,#278,.T.);
#183=EDGE_CURVE('',#239,#236,#279,.T.);
#184=EDGE_CURVE('',#240,#241,#280,.T.);
#185=EDGE_CURVE('',#240,#242,#281,.F.);
#186=EDGE_CURVE('',#242,#243,#282,.T.);
#187=EDGE_CURVE('',#243,#241,#283,.T.);
#188=EDGE_CURVE('',#244,#244,#12,.T.);
#189=EDGE_CURVE('',#245,#245,#13,.T.);
#190=EDGE_CURVE('',#246,#246,#14,.T.);
#191=EDGE_CURVE('',#247,#247,#15,.T.);
#192=EDGE_CURVE('',#248,#248,#16,.T.);
#193=EDGE_CURVE('',#249,#249,#17,.T.);
#194=EDGE_CURVE('',#250,#250,#18,.T.);
#195=EDGE_CURVE('',#251,#251,#19,.T.);
#196=EDGE_CURVE('',#252,#253,#284,.T.);
#197=EDGE_CURVE('',#253,#254,#285,.T.);
#198=EDGE_CURVE('',#255,#254,#286,.T.);
#199=EDGE_CURVE('',#255,#252,#287,.F.);
#200=EDGE_CURVE('',#230,#232,#20,.T.);
#201=EDGE_CURVE('',#233,#239,#21,.T.);
#202=EDGE_CURVE('',#238,#243,#22,.T.);
#203=EDGE_CURVE('',#242,#231,#23,.T.);
#204=EDGE_CURVE('',#216,#223,#24,.F.);
#205=EDGE_CURVE('',#222,#227,#25,.F.);
#206=EDGE_CURVE('',#226,#253,#26,.F.);
#207=EDGE_CURVE('',#252,#217,#27,.F.);
#208=EDGE_CURVE('',#234,#228,#28,.F.);
#209=EDGE_CURVE('',#229,#240,#29,.F.);
#210=EDGE_CURVE('',#241,#237,#30,.F.);
#211=EDGE_CURVE('',#236,#235,#31,.F.);
#212=EDGE_CURVE('',#220,#219,#32,.T.);
#213=EDGE_CURVE('',#218,#255,#33,.T.);
#214=EDGE_CURVE('',#254,#225,#34,.T.);
#215=EDGE_CURVE('',#224,#221,#35,.T.);
#216=VERTEX_POINT('',#612);
#217=VERTEX_POINT('',#613);
#218=VERTEX_POINT('',#615);
#219=VERTEX_POINT('',#617);
#220=VERTEX_POINT('',#621);
#221=VERTEX_POINT('',#622);
#222=VERTEX_POINT('',#624);
#223=VERTEX_POINT('',#626);
#224=VERTEX_POINT('',#630);
#225=VERTEX_POINT('',#631);
#226=VERTEX_POINT('',#633);
#227=VERTEX_POINT('',#635);
#228=VERTEX_POINT('',#639);
#229=VERTEX_POINT('',#640);
#230=VERTEX_POINT('',#642);
#231=VERTEX_POINT('',#644);
#232=VERTEX_POINT('',#648);
#233=VERTEX_POINT('',#649);
#234=VERTEX_POINT('',#651);
#235=VERTEX_POINT('',#653);
#236=VERTEX_POINT('',#657);
#237=VERTEX_POINT('',#658);
#238=VERTEX_POINT('',#660);
#239=VERTEX_POINT('',#662);
#240=VERTEX_POINT('',#666);
#241=VERTEX_POINT('',#667);
#242=VERTEX_POINT('',#669);
#243=VERTEX_POINT('',#671);
#244=VERTEX_POINT('',#675);
#245=VERTEX_POINT('',#677);
#246=VERTEX_POINT('',#680);
#247=VERTEX_POINT('',#682);
#248=VERTEX_POINT('',#685);
#249=VERTEX_POINT('',#687);
#250=VERTEX_POINT('',#690);
#251=VERTEX_POINT('',#692);
#252=VERTEX_POINT('',#695);
#253=VERTEX_POINT('',#696);
#254=VERTEX_POINT('',#698);
#255=VERTEX_POINT('',#700);
#256=LINE('',#611,#288);
#257=LINE('',#614,#289);
#258=LINE('',#616,#290);
#259=LINE('',#618,#291);
#260=LINE('',#620,#292);
#261=LINE('',#623,#293);
#262=LINE('',#625,#294);
#263=LINE('',#627,#295);
#264=LINE('',#629,#296);
#265=LINE('',#632,#297);
#266=LINE('',#634,#298);
#267=LINE('',#636,#299);
#268=LINE('',#638,#300);
#269=LINE('',#641,#301);
#270=LINE('',#643,#302);
#271=LINE('',#645,#303);
#272=LINE('',#647,#304);
#273=LINE('',#650,#305);
#274=LINE('',#652,#306);
#275=LINE('',#654,#307);
#276=LINE('',#656,#308);
#277=LINE('',#659,#309);
#278=LINE('',#661,#310);
#279=LINE('',#663,#311);
#280=LINE('',#665,#312);
#281=LINE('',#668,#313);
#282=LINE('',#670,#314);
#283=LINE('',#672,#315);
#284=LINE('',#694,#316);
#285=LINE('',#697,#317);
#286=LINE('',#699,#318);
#287=LINE('',#701,#319);
#288=VECTOR('',#487,1.);
#289=VECTOR('',#488,1.);
#290=VECTOR('',#489,1.);
#291=VECTOR('',#490,1.);
#292=VECTOR('',#493,1.);
#293=VECTOR('',#494,1.);
#294=VECTOR('',#495,1.);
#295=VECTOR('',#496,1.);
#296=VECTOR('',#499,1.);
#297=VECTOR('',#500,1.);
#298=VECTOR('',#501,1.);
#299=VECTOR('',#502,1.);
#300=VECTOR('',#505,1.);
#301=VECTOR('',#506,1.);
#302=VECTOR('',#507,1.);
#303=VECTOR('',#508,1.);
#304=VECTOR('',#511,1.);
#305=VECTOR('',#512,1.);
#306=VECTOR('',#513,1.);
#307=VECTOR('',#514,1.);
#308=VECTOR('',#517,1.);
#309=VECTOR('',#518,1.);
#310=VECTOR('',#519,1.);
#311=VECTOR('',#520,1.);
#312=VECTOR('',#523,1.);
#313=VECTOR('',#524,1.);
#314=VECTOR('',#525,1.);
#315=VECTOR('',#526,1.);
#316=VECTOR('',#553,1.);
#317=VECTOR('',#554,1.);
#318=VECTOR('',#555,1.);
#319=VECTOR('',#556,1.);
#320=EDGE_LOOP('',(#48,#49,#50,#51));
#321=EDGE_LOOP('',(#52,#53,#54,#55));
#322=EDGE_LOOP('',(#56,#57,#58,#59));
#323=EDGE_LOOP('',(#60,#61,#62,#63));
#324=EDGE_LOOP('',(#64,#65,#66,#67));
#325=EDGE_LOOP('',(#68,#69,#70,#71));
#326=EDGE_LOOP('',(#72,#73,#74,#75));
#327=EDGE_LOOP('',(#76));
#328=EDGE_LOOP('',(#77));
#329=EDGE_LOOP('',(#78));
#330=EDGE_LOOP('',(#79));
#331=EDGE_LOOP('',(#80));
#332=EDGE_LOOP('',(#81));
#333=EDGE_LOOP('',(#82));
#334=EDGE_LOOP('',(#83));
#335=EDGE_LOOP('',(#84,#85,#86,#87));
#336=EDGE_LOOP('',(#88));
#337=EDGE_LOOP('',(#89));
#338=EDGE_LOOP('',(#90));
#339=EDGE_LOOP('',(#91));
#340=EDGE_LOOP('',(#92,#93,#94,#95,#96,#97,#98,#99));
#341=EDGE_LOOP('',(#100,#101,#102,#103,#104,#105,#106,#107));
#342=EDGE_LOOP('',(#108));
#343=EDGE_LOOP('',(#109));
#344=EDGE_LOOP('',(#110));
#345=EDGE_LOOP('',(#111));
#346=EDGE_LOOP('',(#112,#113,#114,#115,#116,#117,#118,#119));
#347=EDGE_LOOP('',(#120,#121,#122,#123,#124,#125,#126,#127));
#348=EDGE_LOOP('',(#128,#129,#130,#131));
#349=EDGE_LOOP('',(#132,#133,#134,#135));
#350=EDGE_LOOP('',(#136,#137,#138,#139));
#351=EDGE_LOOP('',(#140,#141,#142,#143));
#352=EDGE_LOOP('',(#144,#145,#146,#147));
#353=EDGE_LOOP('',(#148,#149,#150,#151));
#354=EDGE_LOOP('',(#152,#153,#154,#155));
#355=EDGE_LOOP('',(#156,#157,#158,#159));
#356=FACE_BOUND('',#320,.T.);
#357=FACE_BOUND('',#321,.T.);
#358=FACE_BOUND('',#322,.T.);
#359=FACE_BOUND('',#323,.T.);
#360=FACE_BOUND('',#324,.T.);
#361=FACE_BOUND('',#325,.T.);
#362=FACE_BOUND('',#326,.T.);
#363=FACE_BOUND('',#327,.T.);
#364=FACE_BOUND('',#328,.T.);
#365=FACE_BOUND('',#329,.T.);
#366=FACE_BOUND('',#330,.T.);
#367=FACE_BOUND('',#331,.T.);
#368=FACE_BOUND('',#332,.T.);
#369=FACE_BOUND('',#333,.T.);
#370=FACE_BOUND('',#334,.T.);
#371=FACE_BOUND('',#335,.T.);
#372=FACE_BOUND('',#336,.T.);
#373=FACE_BOUND('',#337,.T.);
#374=FACE_BOUND('',#338,.T.);
#375=FACE_BOUND('',#339,.T.);
#376=FACE_BOUND('',#340,.T.);
#377=FACE_BOUND('',#341,.T.);
#378=FACE_BOUND('',#342,.T.);
#379=FACE_BOUND('',#343,.T.);
#380=FACE_BOUND('',#344,.T.);
#381=FACE_BOUND('',#345,.T.);
#382=FACE_BOUND('',#346,.T.);
#383=FACE_BOUND('',#347,.T.);
#384=FACE_BOUND('',#348,.T.);
#385=FACE_BOUND('',#349,.T.);
#386=FACE_BOUND('',#350,.T.);
#387=FACE_BOUND('',#351,.T.);
#388=FACE_BOUND('',#352,.T.);
#389=FACE_BOUND('',#353,.T.);
#390=FACE_BOUND('',#354,.T.);
#391=FACE_BOUND('',#355,.T.);
#392=PLANE('',#437);
#393=PLANE('',#438);
#394=PLANE('',#439);
#395=PLANE('',#440);
#396=PLANE('',#441);
#397=PLANE('',#442);
#398=PLANE('',#443);
#399=PLANE('',#456);
#400=PLANE('',#457);
#401=PLANE('',#466);
#402=ADVANCED_FACE('',(#356),#392,.T.);
#403=ADVANCED_FACE('',(#357),#393,.F.);
#404=ADVANCED_FACE('',(#358),#394,.F.);
#405=ADVANCED_FACE('',(#359),#395,.T.);
#406=ADVANCED_FACE('',(#360),#396,.F.);
#407=ADVANCED_FACE('',(#361),#397,.F.);
#408=ADVANCED_FACE('',(#362),#398,.T.);
#409=ADVANCED_FACE('',(#363,#364),#36,.F.);
#410=ADVANCED_FACE('',(#365,#366),#37,.F.);
#411=ADVANCED_FACE('',(#367,#368),#38,.F.);
#412=ADVANCED_FACE('',(#369,#370),#39,.F.);
#413=ADVANCED_FACE('',(#371),#399,.T.);
#414=ADVANCED_FACE('',(#372,#373,#374,#375,#376,#377),#400,.T.);
#415=ADVANCED_FACE('',(#378,#379,#380,#381,#382,#383),#401,.F.);
#416=ADVANCED_FACE('',(#384),#40,.F.);
#417=ADVANCED_FACE('',(#385),#41,.F.);
#418=ADVANCED_FACE('',(#386),#42,.F.);
#419=ADVANCED_FACE('',(#387),#43,.F.);
#420=ADVANCED_FACE('',(#388),#44,.T.);
#421=ADVANCED_FACE('',(#389),#45,.T.);
#422=ADVANCED_FACE('',(#390),#46,.T.);
#423=ADVANCED_FACE('',(#391),#47,.T.);
#424=CLOSED_SHELL('',(#402,#403,#404,#405,#406,#407,#408,#409,#410,#411,
#412,#413,#414,#415,#416,#417,#418,#419,#420,#421,#422,#423));
#425=STYLED_ITEM('',(#426),#433);
#426=PRESENTATION_STYLE_ASSIGNMENT((#427));
#427=SURFACE_STYLE_USAGE(.BOTH.,#428);
#428=SURFACE_SIDE_STYLE('',(#429));
#429=SURFACE_STYLE_FILL_AREA(#430);
#430=FILL_AREA_STYLE('',(#431));
#431=FILL_AREA_STYLE_COLOUR('',#432);
#432=COLOUR_RGB('',0.647058823529412,0.647058823529412,0.647058823529412);
#433=MANIFOLD_SOLID_BREP('Part 2',#424);
#434=SHAPE_DEFINITION_REPRESENTATION(#734,#435);
#435=SHAPE_REPRESENTATION('Part 2',(#436),#729);
#436=AXIS2_PLACEMENT_3D('',#609,#483,#484);
#437=AXIS2_PLACEMENT_3D('',#610,#485,#486);
#438=AXIS2_PLACEMENT_3D('',#619,#491,#492);
#439=AXIS2_PLACEMENT_3D('',#628,#497,#498);
#440=AXIS2_PLACEMENT_3D('',#637,#503,#504);
#441=AXIS2_PLACEMENT_3D('',#646,#509,#510);
#442=AXIS2_PLACEMENT_3D('',#655,#515,#516);
#443=AXIS2_PLACEMENT_3D('',#664,#521,#522);
#444=AXIS2_PLACEMENT_3D('',#673,#527,#528);
#445=AXIS2_PLACEMENT_3D('',#674,#529,#530);
#446=AXIS2_PLACEMENT_3D('',#676,#531,#532);
#447=AXIS2_PLACEMENT_3D('',#678,#533,#534);
#448=AXIS2_PLACEMENT_3D('',#679,#535,#536);
#449=AXIS2_PLACEMENT_3D('',#681,#537,#538);
#450=AXIS2_PLACEMENT_3D('',#683,#539,#540);
#451=AXIS2_PLACEMENT_3D('',#684,#541,#542);
#452=AXIS2_PLACEMENT_3D('',#686,#543,#544);
#453=AXIS2_PLACEMENT_3D('',#688,#545,#546);
#454=AXIS2_PLACEMENT_3D('',#689,#547,#548);
#455=AXIS2_PLACEMENT_3D('',#691,#549,#550);
#456=AXIS2_PLACEMENT_3D('',#693,#551,#552);
#457=AXIS2_PLACEMENT_3D('',#702,#557,#558);
#458=AXIS2_PLACEMENT_3D('',#703,#559,#560);
#459=AXIS2_PLACEMENT_3D('',#704,#561,#562);
#460=AXIS2_PLACEMENT_3D('',#705,#563,#564);
#461=AXIS2_PLACEMENT_3D('',#706,#565,#566);
#462=AXIS2_PLACEMENT_3D('',#707,#567,#568);
#463=AXIS2_PLACEMENT_3D('',#708,#569,#570);
#464=AXIS2_PLACEMENT_3D('',#709,#571,#572);
#465=AXIS2_PLACEMENT_3D('',#710,#573,#574);
#466=AXIS2_PLACEMENT_3D('',#711,#575,#576);
#467=AXIS2_PLACEMENT_3D('',#712,#577,#578);
#468=AXIS2_PLACEMENT_3D('',#713,#579,#580);
#469=AXIS2_PLACEMENT_3D('',#714,#581,#582);
#470=AXIS2_PLACEMENT_3D('',#715,#583,#584);
#471=AXIS2_PLACEMENT_3D('',#716,#585,#586);
#472=AXIS2_PLACEMENT_3D('',#717,#587,#588);
#473=AXIS2_PLACEMENT_3D('',#718,#589,#590);
#474=AXIS2_PLACEMENT_3D('',#719,#591,#592);
#475=AXIS2_PLACEMENT_3D('',#720,#593,#594);
#476=AXIS2_PLACEMENT_3D('',#721,#595,#596);
#477=AXIS2_PLACEMENT_3D('',#722,#597,#598);
#478=AXIS2_PLACEMENT_3D('',#723,#599,#600);
#479=AXIS2_PLACEMENT_3D('',#724,#601,#602);
#480=AXIS2_PLACEMENT_3D('',#725,#603,#604);
#481=AXIS2_PLACEMENT_3D('',#726,#605,#606);
#482=AXIS2_PLACEMENT_3D('',#727,#607,#608);
#483=DIRECTION('',(0.,0.,1.));
#484=DIRECTION('',(1.,0.,0.));
#485=DIRECTION('',(1.,0.,0.));
#486=DIRECTION('',(0.,0.,-1.));
#487=DIRECTION('',(0.,-1.,0.));
#488=DIRECTION('',(0.,0.,-1.));
#489=DIRECTION('',(0.,-1.,0.));
#490=DIRECTION('',(0.,0.,-1.));
#491=DIRECTION('',(0.,1.,0.));
#492=DIRECTION('',(0.,0.,1.));
#493=DIRECTION('',(1.,0.,0.));
#494=DIRECTION('',(0.,0.,-1.));
#495=DIRECTION('',(1.,0.,0.));
#496=DIRECTION('',(0.,0.,-1.));
#497=DIRECTION('',(1.,0.,0.));
#498=DIRECTION('',(0.,0.,-1.));
#499=DIRECTION('',(0.,-1.,0.));
#500=DIRECTION('',(0.,0.,-1.));
#501=DIRECTION('',(0.,-1.,0.));
#502=DIRECTION('',(0.,0.,-1.));
#503=DIRECTION('',(2.61845052977632E-16,1.,0.));
#504=DIRECTION('',(-1.,2.61845052977632E-16,0.));
#505=DIRECTION('',(1.,-2.61845052977632E-16,0.));
#506=DIRECTION('',(0.,0.,-1.));
#507=DIRECTION('',(1.,-2.61845052977632E-16,0.));
#508=DIRECTION('',(0.,0.,-1.));
#509=DIRECTION('',(1.,0.,0.));
#510=DIRECTION('',(0.,0.,-1.));
#511=DIRECTION('',(0.,-1.,0.));
#512=DIRECTION('',(0.,0.,-1.));
#513=DIRECTION('',(0.,-1.,0.));
#514=DIRECTION('',(0.,0.,-1.));
#515=DIRECTION('',(0.,1.,0.));
#516=DIRECTION('',(0.,0.,1.));
#517=DIRECTION('',(1.,0.,0.));
#518=DIRECTION('',(0.,0.,-1.));
#519=DIRECTION('',(1.,0.,0.));
#520=DIRECTION('',(0.,0.,-1.));
#521=DIRECTION('',(1.,0.,0.));
#522=DIRECTION('',(0.,0.,-1.));
#523=DIRECTION('',(0.,-1.,0.));
#524=DIRECTION('',(0.,0.,-1.));
#525=DIRECTION('',(0.,-1.,0.));
#526=DIRECTION('',(0.,0.,-1.));
#527=DIRECTION('',(0.,0.,-1.));
#528=DIRECTION('',(-1.,0.,0.));
#529=DIRECTION('',(0.,0.,1.));
#530=DIRECTION('',(1.,0.,0.));
#531=DIRECTION('',(0.,0.,1.));
#532=DIRECTION('',(1.,0.,0.));
#533=DIRECTION('',(0.,0.,-1.));
#534=DIRECTION('',(-1.,0.,0.));
#535=DIRECTION('',(0.,0.,1.));
#536=DIRECTION('',(1.,0.,0.));
#537=DIRECTION('',(0.,0.,1.));
#538=DIRECTION('',(1.,0.,0.));
#539=DIRECTION('',(0.,0.,-1.));
#540=DIRECTION('',(-1.,0.,0.));
#541=DIRECTION('',(0.,0.,1.));
#542=DIRECTION('',(1.,0.,0.));
#543=DIRECTION('',(0.,0.,1.));
#544=DIRECTION('',(1.,0.,0.));
#545=DIRECTION('',(0.,0.,-1.));
#546=DIRECTION('',(-1.,0.,0.));
#547=DIRECTION('',(0.,0.,1.));
#548=DIRECTION('',(1.,0.,0.));
#549=DIRECTION('',(0.,0.,1.));
#550=DIRECTION('',(1.,0.,0.));
#551=DIRECTION('',(0.,1.,0.));
#552=DIRECTION('',(0.,0.,1.));
#553=DIRECTION('',(1.,0.,0.));
#554=DIRECTION('',(0.,0.,-1.));
#555=DIRECTION('',(1.,0.,0.));
#556=DIRECTION('',(0.,0.,-1.));
#557=DIRECTION('',(0.,0.,1.));
#558=DIRECTION('',(1.,0.,0.));
#559=DIRECTION('',(0.,0.,1.));
#560=DIRECTION('',(1.,0.,0.));
#561=DIRECTION('',(0.,0.,1.));
#562=DIRECTION('',(1.,0.,0.));
#563=DIRECTION('',(0.,0.,1.));
#564=DIRECTION('',(1.,0.,0.));
#565=DIRECTION('',(0.,0.,1.));
#566=DIRECTION('',(1.,0.,0.));
#567=DIRECTION('',(0.,0.,1.));
#568=DIRECTION('',(1.,0.,0.));
#569=DIRECTION('',(0.,0.,1.));
#570=DIRECTION('',(1.,0.,0.));
#571=DIRECTION('',(0.,0.,1.));
#572=DIRECTION('',(1.,0.,0.));
#573=DIRECTION('',(0.,0.,1.));
#574=DIRECTION('',(1.,0.,0.));
#575=DIRECTION('',(0.,0.,1.));
#576=DIRECTION('',(1.,0.,0.));
#577=DIRECTION('',(0.,0.,1.));
#578=DIRECTION('',(1.,0.,0.));
#579=DIRECTION('',(0.,0.,1.));
#580=DIRECTION('',(1.,0.,0.));
#581=DIRECTION('',(0.,0.,1.));
#582=DIRECTION('',(1.,0.,0.));
#583=DIRECTION('',(0.,0.,1.));
#584=DIRECTION('',(1.,0.,0.));
#585=DIRECTION('',(0.,0.,1.));
#586=DIRECTION('',(1.,0.,0.));
#587=DIRECTION('',(0.,0.,1.));
#588=DIRECTION('',(1.,0.,0.));
#589=DIRECTION('',(0.,0.,1.));
#590=DIRECTION('',(1.,0.,0.));
#591=DIRECTION('',(0.,0.,1.));
#592=DIRECTION('',(1.,0.,0.));
#593=DIRECTION('',(0.,0.,-1.));
#594=DIRECTION('',(-1.,0.,0.));
#595=DIRECTION('',(0.,0.,1.));
#596=DIRECTION('',(1.,0.,0.));
#597=DIRECTION('',(0.,0.,1.));
#598=DIRECTION('',(1.,0.,0.));
#599=DIRECTION('',(0.,0.,-1.));
#600=DIRECTION('',(-1.,0.,0.));
#601=DIRECTION('',(0.,0.,1.));
#602=DIRECTION('',(1.,0.,0.));
#603=DIRECTION('',(0.,0.,-1.));
#604=DIRECTION('',(-1.,0.,0.));
#605=DIRECTION('',(0.,0.,1.));
#606=DIRECTION('',(1.,0.,0.));
#607=DIRECTION('',(0.,0.,-1.));
#608=DIRECTION('',(-1.,0.,0.));
#609=CARTESIAN_POINT('',(0.,0.,0.));
#610=CARTESIAN_POINT('',(0.0691923876315026,5.20417042793042E-18,0.004));
#611=CARTESIAN_POINT('',(0.0691923876315026,5.20417042793042E-18,0.004));
#612=CARTESIAN_POINT('',(0.0691923876315026,0.00425,0.004));
#613=CARTESIAN_POINT('',(0.0691923876315026,-0.00425,0.004));
#614=CARTESIAN_POINT('',(0.0691923876315026,-0.00425,0.));
#615=CARTESIAN_POINT('',(0.0691923876315026,-0.00425,0.));
#616=CARTESIAN_POINT('',(0.0691923876315026,5.20417042793042E-18,0.));
#617=CARTESIAN_POINT('',(0.0691923876315026,0.00425,0.));
#618=CARTESIAN_POINT('',(0.0691923876315026,0.00425,0.004));
#619=CARTESIAN_POINT('',(0.0741923876315026,0.005,0.004));
#620=CARTESIAN_POINT('',(0.0741923876315026,0.005,0.));
#621=CARTESIAN_POINT('',(0.0699423876315026,0.005,0.));
#622=CARTESIAN_POINT('',(0.0784423876315026,0.005,0.));
#623=CARTESIAN_POINT('',(0.0784423876315026,0.005,0.004));
#624=CARTESIAN_POINT('',(0.0784423876315026,0.005,0.004));
#625=CARTESIAN_POINT('',(0.0741923876315026,0.005,0.004));
#626=CARTESIAN_POINT('',(0.0699423876315026,0.005,0.004));
#627=CARTESIAN_POINT('',(0.0699423876315026,0.005,0.004));
#628=CARTESIAN_POINT('',(0.0791923876315026,5.20417042793042E-18,0.004));
#629=CARTESIAN_POINT('',(0.0791923876315026,5.20417042793042E-18,0.));
#630=CARTESIAN_POINT('',(0.0791923876315026,0.00425,0.));
#631=CARTESIAN_POINT('',(0.0791923876315026,-0.00425,0.));
#632=CARTESIAN_POINT('',(0.0791923876315026,-0.00425,0.004));
#633=CARTESIAN_POINT('',(0.0791923876315026,-0.00425,0.004));
#634=CARTESIAN_POINT('',(0.0791923876315026,5.20417042793042E-18,0.004));
#635=CARTESIAN_POINT('',(0.0791923876315026,0.00425,0.004));
#636=CARTESIAN_POINT('',(0.0791923876315026,0.00425,0.));
#637=CARTESIAN_POINT('',(0.0741923876315026,0.039,0.004));
#638=CARTESIAN_POINT('',(0.0741923876315026,0.039,0.));
#639=CARTESIAN_POINT('',(0.0484423876315026,0.039,0.));
#640=CARTESIAN_POINT('',(0.0999423876315026,0.039,0.));
#641=CARTESIAN_POINT('',(0.0484423876315026,0.039,0.004));
#642=CARTESIAN_POINT('',(0.0484423876315026,0.039,0.004));
#643=CARTESIAN_POINT('',(0.0741923876315026,0.039,0.004));
#644=CARTESIAN_POINT('',(0.0999423876315026,0.039,0.004));
#645=CARTESIAN_POINT('',(0.0999423876315026,0.039,0.004));
#646=CARTESIAN_POINT('',(0.0476923876315026,1.38777878078145E-17,0.004));
#647=CARTESIAN_POINT('',(0.0476923876315026,1.38777878078145E-17,0.004));
#648=CARTESIAN_POINT('',(0.0476923876315026,0.03825,0.004));
#649=CARTESIAN_POINT('',(0.0476923876315026,-0.03825,0.004));
#650=CARTESIAN_POINT('',(0.0476923876315026,0.03825,0.));
#651=CARTESIAN_POINT('',(0.0476923876315026,0.03825,0.));
#652=CARTESIAN_POINT('',(0.0476923876315026,1.38777878078145E-17,0.));
#653=CARTESIAN_POINT('',(0.0476923876315026,-0.03825,0.));
#654=CARTESIAN_POINT('',(0.0476923876315026,-0.03825,0.004));
#655=CARTESIAN_POINT('',(0.0741923876315026,-0.039,0.004));
#656=CARTESIAN_POINT('',(0.0741923876315026,-0.039,0.));
#657=CARTESIAN_POINT('',(0.0484423876315026,-0.039,0.));
#658=CARTESIAN_POINT('',(0.0999423876315026,-0.039,0.));
#659=CARTESIAN_POINT('',(0.0999423876315026,-0.039,0.004));
#660=CARTESIAN_POINT('',(0.0999423876315026,-0.039,0.004));
#661=CARTESIAN_POINT('',(0.0741923876315026,-0.039,0.004));
#662=CARTESIAN_POINT('',(0.0484423876315026,-0.039,0.004));
#663=CARTESIAN_POINT('',(0.0484423876315026,-0.039,0.004));
#664=CARTESIAN_POINT('',(0.100692387631503,2.08166817117217E-17,0.004));
#665=CARTESIAN_POINT('',(0.100692387631503,2.08166817117217E-17,0.));
#666=CARTESIAN_POINT('',(0.100692387631503,0.03825,0.));
#667=CARTESIAN_POINT('',(0.100692387631503,-0.03825,0.));
#668=CARTESIAN_POINT('',(0.100692387631503,0.03825,0.004));
#669=CARTESIAN_POINT('',(0.100692387631503,0.03825,0.004));
#670=CARTESIAN_POINT('',(0.100692387631503,2.08166817117217E-17,0.004));
#671=CARTESIAN_POINT('',(0.100692387631503,-0.03825,0.004));
#672=CARTESIAN_POINT('',(0.100692387631503,-0.03825,0.));
#673=CARTESIAN_POINT('',(0.0501367527128922,0.0365556349186105,0.004));
#674=CARTESIAN_POINT('',(0.0501367527128922,0.0365556349186105,0.004));
#675=CARTESIAN_POINT('',(0.0517367527128922,0.0365556349186105,0.004));
#676=CARTESIAN_POINT('',(0.0501367527128922,0.0365556349186105,0.));
#677=CARTESIAN_POINT('',(0.0517367527128922,0.0365556349186105,0.));
#678=CARTESIAN_POINT('',(0.098248022550113,0.0365556349186104,0.004));
#679=CARTESIAN_POINT('',(0.098248022550113,0.0365556349186104,0.004));
#680=CARTESIAN_POINT('',(0.099848022550113,0.0365556349186104,0.004));
#681=CARTESIAN_POINT('',(0.098248022550113,0.0365556349186104,0.));
#682=CARTESIAN_POINT('',(0.099848022550113,0.0365556349186104,0.));
#683=CARTESIAN_POINT('',(0.0501367527128922,-0.0365556349186104,0.004));
#684=CARTESIAN_POINT('',(0.0501367527128922,-0.0365556349186104,0.004));
#685=CARTESIAN_POINT('',(0.0517367527128922,-0.0365556349186104,0.004));
#686=CARTESIAN_POINT('',(0.0501367527128922,-0.0365556349186104,0.));
#687=CARTESIAN_POINT('',(0.0517367527128922,-0.0365556349186104,0.));
#688=CARTESIAN_POINT('',(0.098248022550113,-0.0365556349186104,0.004));
#689=CARTESIAN_POINT('',(0.098248022550113,-0.0365556349186104,0.004));
#690=CARTESIAN_POINT('',(0.099848022550113,-0.0365556349186104,0.004));
#691=CARTESIAN_POINT('',(0.098248022550113,-0.0365556349186104,0.));
#692=CARTESIAN_POINT('',(0.099848022550113,-0.0365556349186104,0.));
#693=CARTESIAN_POINT('',(0.0741923876315026,-0.005,0.004));
#694=CARTESIAN_POINT('',(0.0741923876315026,-0.005,0.004));
#695=CARTESIAN_POINT('',(0.0699423876315026,-0.005,0.004));
#696=CARTESIAN_POINT('',(0.0784423876315026,-0.005,0.004));
#697=CARTESIAN_POINT('',(0.0784423876315026,-0.005,0.004));
#698=CARTESIAN_POINT('',(0.0784423876315026,-0.005,0.));
#699=CARTESIAN_POINT('',(0.0741923876315026,-0.005,0.));
#700=CARTESIAN_POINT('',(0.0699423876315026,-0.005,0.));
#701=CARTESIAN_POINT('',(0.0699423876315026,-0.005,0.004));
#702=CARTESIAN_POINT('',(0.0741923876315026,2.08166817117217E-17,0.004));
#703=CARTESIAN_POINT('',(0.0484423876315026,0.03825,0.004));
#704=CARTESIAN_POINT('',(0.0484423876315026,-0.03825,0.004));
#705=CARTESIAN_POINT('',(0.0999423876315026,-0.03825,0.004));
#706=CARTESIAN_POINT('',(0.0999423876315026,0.03825,0.004));
#707=CARTESIAN_POINT('',(0.0699423876315026,0.00425,0.004));
#708=CARTESIAN_POINT('',(0.0784423876315026,0.00425,0.004));
#709=CARTESIAN_POINT('',(0.0784423876315026,-0.00425,0.004));
#710=CARTESIAN_POINT('',(0.0699423876315026,-0.00425,0.004));
#711=CARTESIAN_POINT('',(0.0741923876315026,2.08166817117217E-17,0.));
#712=CARTESIAN_POINT('',(0.0484423876315026,0.03825,0.));
#713=CARTESIAN_POINT('',(0.0999423876315026,0.03825,0.));
#714=CARTESIAN_POINT('',(0.0999423876315026,-0.03825,0.));
#715=CARTESIAN_POINT('',(0.0484423876315026,-0.03825,0.));
#716=CARTESIAN_POINT('',(0.0699423876315026,0.00425,0.));
#717=CARTESIAN_POINT('',(0.0699423876315026,-0.00425,0.));
#718=CARTESIAN_POINT('',(0.0784423876315026,-0.00425,0.));
#719=CARTESIAN_POINT('',(0.0784423876315026,0.00425,0.));
#720=CARTESIAN_POINT('',(0.0784423876315026,-0.00425,0.004));
#721=CARTESIAN_POINT('',(0.0699423876315026,-0.00425,0.004));
#722=CARTESIAN_POINT('',(0.0784423876315026,0.00425,0.004));
#723=CARTESIAN_POINT('',(0.0699423876315026,0.00425,0.004));
#724=CARTESIAN_POINT('',(0.0484423876315026,0.03825,0.004));
#725=CARTESIAN_POINT('',(0.0999423876315026,0.03825,0.004));
#726=CARTESIAN_POINT('',(0.0999423876315026,-0.03825,0.004));
#727=CARTESIAN_POINT('',(0.0484423876315026,-0.03825,0.004));
#728=MECHANICAL_DESIGN_GEOMETRIC_PRESENTATION_REPRESENTATION('',(#425),
#729);
#729=(
GEOMETRIC_REPRESENTATION_CONTEXT(3)
GLOBAL_UNCERTAINTY_ASSIGNED_CONTEXT((#730))
GLOBAL_UNIT_ASSIGNED_CONTEXT((#733,#732,#731))
REPRESENTATION_CONTEXT('Part 2','TOP_LEVEL_ASSEMBLY_PART')
);
#730=UNCERTAINTY_MEASURE_WITH_UNIT(LENGTH_MEASURE(1.E-8),#733,
'DISTANCE_ACCURACY_VALUE','Maximum Tolerance applied to model');
#731=(
NAMED_UNIT(*)
SI_UNIT($,.STERADIAN.)
SOLID_ANGLE_UNIT()
);
#732=(
NAMED_UNIT(*)
PLANE_ANGLE_UNIT()
SI_UNIT($,.RADIAN.)
);
#733=(
LENGTH_UNIT()
NAMED_UNIT(*)
SI_UNIT($,.METRE.)
);
#734=PRODUCT_DEFINITION_SHAPE('','',#735);
#735=PRODUCT_DEFINITION('','',#737,#736);
#736=PRODUCT_DEFINITION_CONTEXT('',#743,'design');
#737=PRODUCT_DEFINITION_FORMATION_WITH_SPECIFIED_SOURCE('','',#739,
 .NOT_KNOWN.);
#738=PRODUCT_RELATED_PRODUCT_CATEGORY('','',(#739));
#739=PRODUCT('Part 2','Part 2','Part 2',(#741));
#740=PRODUCT_CATEGORY('','');
#741=PRODUCT_CONTEXT('',#743,'mechanical');
#742=APPLICATION_PROTOCOL_DEFINITION('international standard',
'ap242_managed_model_based_3d_engineering',2020,#743);
#743=APPLICATION_CONTEXT('managed model based 3d engineering');
ENDSEC;
END-ISO-10303-21;
