ISO-10303-21;
HEADER;
/* Generated by software containing ST-Developer
 * from STEP Tools, Inc. (www.steptools.com) 
 */
/* OPTION: using custom renumber hook */

FILE_DESCRIPTION(
/* description */ ('STEP AP242 Edition 2',
'CAx-IF Rec.Pracs.---Representation and Presentation of Product Manufa
cturing Information (PMI)---4.0---2014-10-13',
'CAx-IF Rec.Pracs.---3D Tessellated Geometry---0.4---2014-09-14','2;1',
'CAx-IF Rec.Pracs.---User Defined Attributes---1.5---2016-08-15'),
/* implementation_level */ '2;1');

FILE_NAME(
/* name */ 'Part Studio 1 - Part 1',
/* time_stamp */ '2026-04-18T00:27:33Z',
/* author */ (''),
/* organization */ (''),
/* preprocessor_version */ 'ST-DEVELOPER v20',
/* originating_system */ 'ONSHAPE BY PTC INC, 1.213',
/* authorisation */ '  ');

FILE_SCHEMA (('AP242_MANAGED_MODEL_BASED_3D_ENGINEERING_MIM_LF { 1 0 10303 442 3 1 4 }'));
ENDSEC;

DATA;
#10=SHAPE_REPRESENTATION_RELATIONSHIP('','',#763,#11);
#11=ADVANCED_BREP_SHAPE_REPRESENTATION('',(#761),#1324);
#12=CONICAL_SURFACE('',#820,0.0011,0.785398163397448);
#13=CONICAL_SURFACE('',#821,0.0016,0.785398163397448);
#14=CONICAL_SURFACE('',#822,0.0016,0.785398163397448);
#15=CONICAL_SURFACE('',#823,0.0016,0.785398163397448);
#16=CONICAL_SURFACE('',#824,0.0016,0.785398163397448);
#17=CONICAL_SURFACE('',#828,0.009,0.785398163397448);
#18=CONICAL_SURFACE('',#829,0.0085,0.785398163397448);
#19=CONICAL_SURFACE('',#849,0.0095,0.785398163397449);
#20=CYLINDRICAL_SURFACE('',#803,0.0016);
#21=CYLINDRICAL_SURFACE('',#807,0.0016);
#22=CYLINDRICAL_SURFACE('',#811,0.0016);
#23=CYLINDRICAL_SURFACE('',#815,0.0016);
#24=CYLINDRICAL_SURFACE('',#825,0.0085);
#25=CYLINDRICAL_SURFACE('',#831,0.00075);
#26=CYLINDRICAL_SURFACE('',#832,0.00075);
#27=CYLINDRICAL_SURFACE('',#833,0.00075);
#28=CYLINDRICAL_SURFACE('',#834,0.00075);
#29=CYLINDRICAL_SURFACE('',#835,0.00075);
#30=CYLINDRICAL_SURFACE('',#836,0.00075);
#31=CYLINDRICAL_SURFACE('',#837,0.00075);
#32=CYLINDRICAL_SURFACE('',#838,0.00075);
#33=CYLINDRICAL_SURFACE('',#841,0.0085);
#34=CYLINDRICAL_SURFACE('',#844,0.0105);
#35=CYLINDRICAL_SURFACE('',#850,0.0016);
#36=CYLINDRICAL_SURFACE('',#853,0.0016);
#37=CYLINDRICAL_SURFACE('',#856,0.0016);
#38=CYLINDRICAL_SURFACE('',#859,0.0016);
#39=B_SPLINE_CURVE_WITH_KNOTS('',3,(#1221,#1222,#1223,#1224),
 .UNSPECIFIED.,.F.,.F.,(4,4),(0.,0.00300061402009938),.UNSPECIFIED.);
#40=B_SPLINE_CURVE_WITH_KNOTS('',3,(#1226,#1227,#1228,#1229),
 .UNSPECIFIED.,.F.,.F.,(4,4),(0.,0.003),.UNSPECIFIED.);
#41=CIRCLE('',#766,0.0105);
#42=CIRCLE('',#767,0.009);
#43=CIRCLE('',#772,0.00075);
#44=CIRCLE('',#773,0.00075);
#45=CIRCLE('',#774,0.00075);
#46=CIRCLE('',#775,0.00075);
#47=CIRCLE('',#777,0.0021);
#48=CIRCLE('',#778,0.0021);
#49=CIRCLE('',#779,0.0021);
#50=CIRCLE('',#780,0.0021);
#51=CIRCLE('',#781,0.00075);
#52=CIRCLE('',#782,0.00075);
#53=CIRCLE('',#783,0.00075);
#54=CIRCLE('',#784,0.00075);
#55=CIRCLE('',#785,0.00075);
#56=CIRCLE('',#786,0.00075);
#57=CIRCLE('',#787,0.00075);
#58=CIRCLE('',#788,0.00075);
#59=CIRCLE('',#792,0.009);
#60=CIRCLE('',#795,0.0016);
#61=CIRCLE('',#796,0.0016);
#62=CIRCLE('',#797,0.0016);
#63=CIRCLE('',#798,0.0016);
#64=CIRCLE('',#799,0.00075);
#65=CIRCLE('',#800,0.00075);
#66=CIRCLE('',#801,0.00075);
#67=CIRCLE('',#802,0.00075);
#68=CIRCLE('',#804,0.0016);
#69=CIRCLE('',#805,0.0016);
#70=CIRCLE('',#808,0.0016);
#71=CIRCLE('',#809,0.0016);
#72=CIRCLE('',#812,0.0016);
#73=CIRCLE('',#813,0.0016);
#74=CIRCLE('',#816,0.0016);
#75=CIRCLE('',#817,0.0016);
#76=CIRCLE('',#819,0.0011);
#77=CIRCLE('',#826,0.0085);
#78=CIRCLE('',#827,0.0085);
#79=CIRCLE('',#830,0.009);
#80=CIRCLE('',#840,0.0085);
#81=CIRCLE('',#842,0.0085);
#82=CIRCLE('',#845,0.0105);
#83=CIRCLE('',#848,0.0095);
#84=CIRCLE('',#851,0.0016);
#85=CIRCLE('',#854,0.0016);
#86=CIRCLE('',#857,0.0016);
#87=CIRCLE('',#860,0.0016);
#88=ORIENTED_EDGE('',*,*,#276,.F.);
#89=ORIENTED_EDGE('',*,*,#277,.F.);
#90=ORIENTED_EDGE('',*,*,#278,.F.);
#91=ORIENTED_EDGE('',*,*,#279,.T.);
#92=ORIENTED_EDGE('',*,*,#280,.F.);
#93=ORIENTED_EDGE('',*,*,#281,.T.);
#94=ORIENTED_EDGE('',*,*,#282,.T.);
#95=ORIENTED_EDGE('',*,*,#283,.T.);
#96=ORIENTED_EDGE('',*,*,#284,.T.);
#97=ORIENTED_EDGE('',*,*,#285,.T.);
#98=ORIENTED_EDGE('',*,*,#286,.F.);
#99=ORIENTED_EDGE('',*,*,#287,.T.);
#100=ORIENTED_EDGE('',*,*,#288,.F.);
#101=ORIENTED_EDGE('',*,*,#289,.T.);
#102=ORIENTED_EDGE('',*,*,#290,.T.);
#103=ORIENTED_EDGE('',*,*,#291,.T.);
#104=ORIENTED_EDGE('',*,*,#292,.F.);
#105=ORIENTED_EDGE('',*,*,#293,.T.);
#106=ORIENTED_EDGE('',*,*,#294,.T.);
#107=ORIENTED_EDGE('',*,*,#295,.T.);
#108=ORIENTED_EDGE('',*,*,#290,.F.);
#109=ORIENTED_EDGE('',*,*,#296,.T.);
#110=ORIENTED_EDGE('',*,*,#284,.F.);
#111=ORIENTED_EDGE('',*,*,#297,.T.);
#112=ORIENTED_EDGE('',*,*,#280,.T.);
#113=ORIENTED_EDGE('',*,*,#298,.T.);
#114=ORIENTED_EDGE('',*,*,#292,.T.);
#115=ORIENTED_EDGE('',*,*,#299,.T.);
#116=ORIENTED_EDGE('',*,*,#300,.T.);
#117=ORIENTED_EDGE('',*,*,#301,.T.);
#118=ORIENTED_EDGE('',*,*,#302,.T.);
#119=ORIENTED_EDGE('',*,*,#303,.T.);
#120=ORIENTED_EDGE('',*,*,#304,.F.);
#121=ORIENTED_EDGE('',*,*,#305,.T.);
#122=ORIENTED_EDGE('',*,*,#306,.T.);
#123=ORIENTED_EDGE('',*,*,#307,.T.);
#124=ORIENTED_EDGE('',*,*,#308,.T.);
#125=ORIENTED_EDGE('',*,*,#309,.T.);
#126=ORIENTED_EDGE('',*,*,#310,.F.);
#127=ORIENTED_EDGE('',*,*,#311,.T.);
#128=ORIENTED_EDGE('',*,*,#286,.T.);
#129=ORIENTED_EDGE('',*,*,#312,.T.);
#130=ORIENTED_EDGE('',*,*,#288,.T.);
#131=ORIENTED_EDGE('',*,*,#313,.T.);
#132=ORIENTED_EDGE('',*,*,#294,.F.);
#133=ORIENTED_EDGE('',*,*,#314,.T.);
#134=ORIENTED_EDGE('',*,*,#282,.F.);
#135=ORIENTED_EDGE('',*,*,#315,.T.);
#136=ORIENTED_EDGE('',*,*,#310,.T.);
#137=ORIENTED_EDGE('',*,*,#316,.T.);
#138=ORIENTED_EDGE('',*,*,#317,.T.);
#139=ORIENTED_EDGE('',*,*,#318,.T.);
#140=ORIENTED_EDGE('',*,*,#319,.F.);
#141=ORIENTED_EDGE('',*,*,#320,.T.);
#142=ORIENTED_EDGE('',*,*,#308,.F.);
#143=ORIENTED_EDGE('',*,*,#321,.T.);
#144=ORIENTED_EDGE('',*,*,#322,.F.);
#145=ORIENTED_EDGE('',*,*,#323,.T.);
#146=ORIENTED_EDGE('',*,*,#306,.F.);
#147=ORIENTED_EDGE('',*,*,#324,.T.);
#148=ORIENTED_EDGE('',*,*,#325,.F.);
#149=ORIENTED_EDGE('',*,*,#326,.T.);
#150=ORIENTED_EDGE('',*,*,#304,.T.);
#151=ORIENTED_EDGE('',*,*,#327,.T.);
#152=ORIENTED_EDGE('',*,*,#328,.T.);
#153=ORIENTED_EDGE('',*,*,#329,.T.);
#154=ORIENTED_EDGE('',*,*,#330,.F.);
#155=ORIENTED_EDGE('',*,*,#331,.F.);
#156=ORIENTED_EDGE('',*,*,#332,.F.);
#157=ORIENTED_EDGE('',*,*,#333,.F.);
#158=ORIENTED_EDGE('',*,*,#317,.F.);
#159=ORIENTED_EDGE('',*,*,#334,.T.);
#160=ORIENTED_EDGE('',*,*,#319,.T.);
#161=ORIENTED_EDGE('',*,*,#335,.T.);
#162=ORIENTED_EDGE('',*,*,#322,.T.);
#163=ORIENTED_EDGE('',*,*,#336,.T.);
#164=ORIENTED_EDGE('',*,*,#337,.T.);
#165=ORIENTED_EDGE('',*,*,#325,.T.);
#166=ORIENTED_EDGE('',*,*,#338,.T.);
#167=ORIENTED_EDGE('',*,*,#328,.F.);
#168=ORIENTED_EDGE('',*,*,#339,.T.);
#169=ORIENTED_EDGE('',*,*,#340,.T.);
#170=ORIENTED_EDGE('',*,*,#341,.F.);
#171=ORIENTED_EDGE('',*,*,#341,.T.);
#172=ORIENTED_EDGE('',*,*,#342,.T.);
#173=ORIENTED_EDGE('',*,*,#343,.F.);
#174=ORIENTED_EDGE('',*,*,#343,.T.);
#175=ORIENTED_EDGE('',*,*,#344,.T.);
#176=ORIENTED_EDGE('',*,*,#345,.F.);
#177=ORIENTED_EDGE('',*,*,#345,.T.);
#178=ORIENTED_EDGE('',*,*,#346,.T.);
#179=ORIENTED_EDGE('',*,*,#347,.T.);
#180=ORIENTED_EDGE('',*,*,#348,.T.);
#181=ORIENTED_EDGE('',*,*,#346,.F.);
#182=ORIENTED_EDGE('',*,*,#348,.F.);
#183=ORIENTED_EDGE('',*,*,#300,.F.);
#184=ORIENTED_EDGE('',*,*,#344,.F.);
#185=ORIENTED_EDGE('',*,*,#301,.F.);
#186=ORIENTED_EDGE('',*,*,#347,.F.);
#187=ORIENTED_EDGE('',*,*,#302,.F.);
#188=ORIENTED_EDGE('',*,*,#342,.F.);
#189=ORIENTED_EDGE('',*,*,#303,.F.);
#190=ORIENTED_EDGE('',*,*,#340,.F.);
#191=ORIENTED_EDGE('',*,*,#349,.T.);
#192=ORIENTED_EDGE('',*,*,#350,.T.);
#193=ORIENTED_EDGE('',*,*,#337,.F.);
#194=ORIENTED_EDGE('',*,*,#349,.F.);
#195=ORIENTED_EDGE('',*,*,#336,.F.);
#196=ORIENTED_EDGE('',*,*,#326,.F.);
#197=ORIENTED_EDGE('',*,*,#279,.F.);
#198=ORIENTED_EDGE('',*,*,#351,.F.);
#199=ORIENTED_EDGE('',*,*,#350,.F.);
#200=ORIENTED_EDGE('',*,*,#312,.F.);
#201=ORIENTED_EDGE('',*,*,#285,.F.);
#202=ORIENTED_EDGE('',*,*,#296,.F.);
#203=ORIENTED_EDGE('',*,*,#289,.F.);
#204=ORIENTED_EDGE('',*,*,#315,.F.);
#205=ORIENTED_EDGE('',*,*,#281,.F.);
#206=ORIENTED_EDGE('',*,*,#297,.F.);
#207=ORIENTED_EDGE('',*,*,#287,.F.);
#208=ORIENTED_EDGE('',*,*,#314,.F.);
#209=ORIENTED_EDGE('',*,*,#293,.F.);
#210=ORIENTED_EDGE('',*,*,#298,.F.);
#211=ORIENTED_EDGE('',*,*,#283,.F.);
#212=ORIENTED_EDGE('',*,*,#313,.F.);
#213=ORIENTED_EDGE('',*,*,#291,.F.);
#214=ORIENTED_EDGE('',*,*,#299,.F.);
#215=ORIENTED_EDGE('',*,*,#295,.F.);
#216=ORIENTED_EDGE('',*,*,#309,.F.);
#217=ORIENTED_EDGE('',*,*,#320,.F.);
#218=ORIENTED_EDGE('',*,*,#334,.F.);
#219=ORIENTED_EDGE('',*,*,#316,.F.);
#220=ORIENTED_EDGE('',*,*,#307,.F.);
#221=ORIENTED_EDGE('',*,*,#323,.F.);
#222=ORIENTED_EDGE('',*,*,#335,.F.);
#223=ORIENTED_EDGE('',*,*,#321,.F.);
#224=ORIENTED_EDGE('',*,*,#311,.F.);
#225=ORIENTED_EDGE('',*,*,#318,.F.);
#226=ORIENTED_EDGE('',*,*,#339,.F.);
#227=ORIENTED_EDGE('',*,*,#327,.F.);
#228=ORIENTED_EDGE('',*,*,#305,.F.);
#229=ORIENTED_EDGE('',*,*,#329,.F.);
#230=ORIENTED_EDGE('',*,*,#338,.F.);
#231=ORIENTED_EDGE('',*,*,#324,.F.);
#232=ORIENTED_EDGE('',*,*,#352,.F.);
#233=ORIENTED_EDGE('',*,*,#351,.T.);
#234=ORIENTED_EDGE('',*,*,#353,.F.);
#235=ORIENTED_EDGE('',*,*,#354,.T.);
#236=ORIENTED_EDGE('',*,*,#354,.F.);
#237=ORIENTED_EDGE('',*,*,#355,.F.);
#238=ORIENTED_EDGE('',*,*,#356,.T.);
#239=ORIENTED_EDGE('',*,*,#357,.T.);
#240=ORIENTED_EDGE('',*,*,#358,.F.);
#241=ORIENTED_EDGE('',*,*,#359,.T.);
#242=ORIENTED_EDGE('',*,*,#360,.F.);
#243=ORIENTED_EDGE('',*,*,#355,.T.);
#244=ORIENTED_EDGE('',*,*,#353,.T.);
#245=ORIENTED_EDGE('',*,*,#278,.T.);
#246=ORIENTED_EDGE('',*,*,#361,.F.);
#247=ORIENTED_EDGE('',*,*,#362,.T.);
#248=ORIENTED_EDGE('',*,*,#358,.T.);
#249=ORIENTED_EDGE('',*,*,#277,.T.);
#250=ORIENTED_EDGE('',*,*,#363,.F.);
#251=ORIENTED_EDGE('',*,*,#364,.T.);
#252=ORIENTED_EDGE('',*,*,#361,.T.);
#253=ORIENTED_EDGE('',*,*,#276,.T.);
#254=ORIENTED_EDGE('',*,*,#352,.T.);
#255=ORIENTED_EDGE('',*,*,#357,.F.);
#256=ORIENTED_EDGE('',*,*,#360,.T.);
#257=ORIENTED_EDGE('',*,*,#365,.T.);
#258=ORIENTED_EDGE('',*,*,#363,.T.);
#259=ORIENTED_EDGE('',*,*,#356,.F.);
#260=ORIENTED_EDGE('',*,*,#359,.F.);
#261=ORIENTED_EDGE('',*,*,#362,.F.);
#262=ORIENTED_EDGE('',*,*,#364,.F.);
#263=ORIENTED_EDGE('',*,*,#365,.F.);
#264=ORIENTED_EDGE('',*,*,#366,.F.);
#265=ORIENTED_EDGE('',*,*,#333,.T.);
#266=ORIENTED_EDGE('',*,*,#366,.T.);
#267=ORIENTED_EDGE('',*,*,#367,.F.);
#268=ORIENTED_EDGE('',*,*,#332,.T.);
#269=ORIENTED_EDGE('',*,*,#367,.T.);
#270=ORIENTED_EDGE('',*,*,#368,.F.);
#271=ORIENTED_EDGE('',*,*,#331,.T.);
#272=ORIENTED_EDGE('',*,*,#368,.T.);
#273=ORIENTED_EDGE('',*,*,#369,.F.);
#274=ORIENTED_EDGE('',*,*,#330,.T.);
#275=ORIENTED_EDGE('',*,*,#369,.T.);
#276=EDGE_CURVE('',#370,#371,#439,.T.);
#277=EDGE_CURVE('',#372,#370,#41,.T.);
#278=EDGE_CURVE('',#373,#372,#440,.T.);
#279=EDGE_CURVE('',#373,#371,#42,.F.);
#280=EDGE_CURVE('',#374,#375,#441,.T.);
#281=EDGE_CURVE('',#374,#376,#442,.F.);
#282=EDGE_CURVE('',#376,#377,#443,.T.);
#283=EDGE_CURVE('',#377,#375,#444,.T.);
#284=EDGE_CURVE('',#378,#379,#445,.T.);
#285=EDGE_CURVE('',#379,#380,#446,.F.);
#286=EDGE_CURVE('',#381,#380,#447,.T.);
#287=EDGE_CURVE('',#381,#378,#448,.T.);
#288=EDGE_CURVE('',#382,#383,#449,.T.);
#289=EDGE_CURVE('',#382,#384,#450,.T.);
#290=EDGE_CURVE('',#384,#385,#451,.T.);
#291=EDGE_CURVE('',#385,#383,#452,.F.);
#292=EDGE_CURVE('',#386,#387,#453,.T.);
#293=EDGE_CURVE('',#386,#388,#454,.F.);
#294=EDGE_CURVE('',#388,#389,#455,.T.);
#295=EDGE_CURVE('',#389,#387,#456,.T.);
#296=EDGE_CURVE('',#384,#379,#43,.F.);
#297=EDGE_CURVE('',#378,#374,#44,.F.);
#298=EDGE_CURVE('',#375,#386,#45,.F.);
#299=EDGE_CURVE('',#387,#385,#46,.F.);
#300=EDGE_CURVE('',#390,#390,#47,.F.);
#301=EDGE_CURVE('',#391,#391,#48,.F.);
#302=EDGE_CURVE('',#392,#392,#49,.F.);
#303=EDGE_CURVE('',#393,#393,#50,.F.);
#304=EDGE_CURVE('',#394,#395,#457,.T.);
#305=EDGE_CURVE('',#394,#396,#51,.F.);
#306=EDGE_CURVE('',#396,#397,#458,.T.);
#307=EDGE_CURVE('',#397,#398,#52,.F.);
#308=EDGE_CURVE('',#398,#399,#459,.T.);
#309=EDGE_CURVE('',#399,#400,#53,.F.);
#310=EDGE_CURVE('',#401,#400,#460,.T.);
#311=EDGE_CURVE('',#401,#395,#54,.F.);
#312=EDGE_CURVE('',#380,#382,#55,.T.);
#313=EDGE_CURVE('',#383,#389,#56,.T.);
#314=EDGE_CURVE('',#388,#377,#57,.T.);
#315=EDGE_CURVE('',#376,#381,#58,.T.);
#316=EDGE_CURVE('',#400,#402,#461,.T.);
#317=EDGE_CURVE('',#402,#403,#462,.T.);
#318=EDGE_CURVE('',#403,#401,#463,.F.);
#319=EDGE_CURVE('',#404,#405,#464,.T.);
#320=EDGE_CURVE('',#404,#399,#465,.F.);
#321=EDGE_CURVE('',#398,#405,#466,.T.);
#322=EDGE_CURVE('',#406,#407,#467,.T.);
#323=EDGE_CURVE('',#406,#397,#468,.F.);
#324=EDGE_CURVE('',#396,#408,#469,.T.);
#325=EDGE_CURVE('',#409,#408,#470,.T.);
#326=EDGE_CURVE('',#409,#407,#59,.T.);
#327=EDGE_CURVE('',#395,#410,#471,.T.);
#328=EDGE_CURVE('',#410,#411,#472,.T.);
#329=EDGE_CURVE('',#411,#394,#473,.F.);
#330=EDGE_CURVE('',#412,#412,#60,.T.);
#331=EDGE_CURVE('',#413,#413,#61,.T.);
#332=EDGE_CURVE('',#414,#414,#62,.T.);
#333=EDGE_CURVE('',#415,#415,#63,.T.);
#334=EDGE_CURVE('',#402,#404,#64,.T.);
#335=EDGE_CURVE('',#405,#406,#65,.T.);
#336=EDGE_CURVE('',#407,#416,#39,.T.);
#337=EDGE_CURVE('',#416,#409,#40,.T.);
#338=EDGE_CURVE('',#408,#411,#66,.T.);
#339=EDGE_CURVE('',#410,#403,#67,.T.);
#340=EDGE_CURVE('',#417,#417,#68,.T.);
#341=EDGE_CURVE('',#418,#418,#69,.T.);
#342=EDGE_CURVE('',#419,#419,#70,.T.);
#343=EDGE_CURVE('',#420,#420,#71,.T.);
#344=EDGE_CURVE('',#421,#421,#72,.T.);
#345=EDGE_CURVE('',#422,#422,#73,.T.);
#346=EDGE_CURVE('',#423,#423,#74,.F.);
#347=EDGE_CURVE('',#424,#424,#75,.T.);
#348=EDGE_CURVE('',#425,#425,#76,.T.);
#349=EDGE_CURVE('',#416,#416,#77,.F.);
#350=EDGE_CURVE('',#426,#426,#78,.T.);
#351=EDGE_CURVE('',#371,#373,#79,.F.);
#352=EDGE_CURVE('',#371,#427,#474,.T.);
#353=EDGE_CURVE('',#428,#373,#475,.T.);
#354=EDGE_CURVE('',#428,#427,#80,.T.);
#355=EDGE_CURVE('',#429,#428,#476,.T.);
#356=EDGE_CURVE('',#429,#430,#81,.T.);
#357=EDGE_CURVE('',#430,#427,#477,.T.);
#358=EDGE_CURVE('',#431,#372,#478,.T.);
#359=EDGE_CURVE('',#431,#432,#479,.F.);
#360=EDGE_CURVE('',#429,#432,#480,.T.);
#361=EDGE_CURVE('',#433,#370,#481,.T.);
#362=EDGE_CURVE('',#433,#431,#82,.F.);
#363=EDGE_CURVE('',#434,#430,#482,.T.);
#364=EDGE_CURVE('',#434,#433,#483,.F.);
#365=EDGE_CURVE('',#432,#434,#83,.T.);
#366=EDGE_CURVE('',#435,#435,#84,.T.);
#367=EDGE_CURVE('',#436,#436,#85,.T.);
#368=EDGE_CURVE('',#437,#437,#86,.T.);
#369=EDGE_CURVE('',#438,#438,#87,.T.);
#370=VERTEX_POINT('',#1106);
#371=VERTEX_POINT('',#1107);
#372=VERTEX_POINT('',#1109);
#373=VERTEX_POINT('',#1111);
#374=VERTEX_POINT('',#1114);
#375=VERTEX_POINT('',#1115);
#376=VERTEX_POINT('',#1117);
#377=VERTEX_POINT('',#1119);
#378=VERTEX_POINT('',#1123);
#379=VERTEX_POINT('',#1124);
#380=VERTEX_POINT('',#1126);
#381=VERTEX_POINT('',#1128);
#382=VERTEX_POINT('',#1132);
#383=VERTEX_POINT('',#1133);
#384=VERTEX_POINT('',#1135);
#385=VERTEX_POINT('',#1137);
#386=VERTEX_POINT('',#1141);
#387=VERTEX_POINT('',#1142);
#388=VERTEX_POINT('',#1144);
#389=VERTEX_POINT('',#1146);
#390=VERTEX_POINT('',#1155);
#391=VERTEX_POINT('',#1157);
#392=VERTEX_POINT('',#1159);
#393=VERTEX_POINT('',#1161);
#394=VERTEX_POINT('',#1163);
#395=VERTEX_POINT('',#1164);
#396=VERTEX_POINT('',#1166);
#397=VERTEX_POINT('',#1168);
#398=VERTEX_POINT('',#1170);
#399=VERTEX_POINT('',#1172);
#400=VERTEX_POINT('',#1174);
#401=VERTEX_POINT('',#1176);
#402=VERTEX_POINT('',#1184);
#403=VERTEX_POINT('',#1186);
#404=VERTEX_POINT('',#1190);
#405=VERTEX_POINT('',#1191);
#406=VERTEX_POINT('',#1196);
#407=VERTEX_POINT('',#1197);
#408=VERTEX_POINT('',#1200);
#409=VERTEX_POINT('',#1202);
#410=VERTEX_POINT('',#1206);
#411=VERTEX_POINT('',#1208);
#412=VERTEX_POINT('',#1212);
#413=VERTEX_POINT('',#1214);
#414=VERTEX_POINT('',#1216);
#415=VERTEX_POINT('',#1218);
#416=VERTEX_POINT('',#1225);
#417=VERTEX_POINT('',#1234);
#418=VERTEX_POINT('',#1236);
#419=VERTEX_POINT('',#1240);
#420=VERTEX_POINT('',#1242);
#421=VERTEX_POINT('',#1246);
#422=VERTEX_POINT('',#1248);
#423=VERTEX_POINT('',#1252);
#424=VERTEX_POINT('',#1254);
#425=VERTEX_POINT('',#1257);
#426=VERTEX_POINT('',#1266);
#427=VERTEX_POINT('',#1280);
#428=VERTEX_POINT('',#1282);
#429=VERTEX_POINT('',#1286);
#430=VERTEX_POINT('',#1288);
#431=VERTEX_POINT('',#1292);
#432=VERTEX_POINT('',#1294);
#433=VERTEX_POINT('',#1298);
#434=VERTEX_POINT('',#1302);
#435=VERTEX_POINT('',#1309);
#436=VERTEX_POINT('',#1313);
#437=VERTEX_POINT('',#1317);
#438=VERTEX_POINT('',#1321);
#439=LINE('',#1105,#484);
#440=LINE('',#1110,#485);
#441=LINE('',#1113,#486);
#442=LINE('',#1116,#487);
#443=LINE('',#1118,#488);
#444=LINE('',#1120,#489);
#445=LINE('',#1122,#490);
#446=LINE('',#1125,#491);
#447=LINE('',#1127,#492);
#448=LINE('',#1129,#493);
#449=LINE('',#1131,#494);
#450=LINE('',#1134,#495);
#451=LINE('',#1136,#496);
#452=LINE('',#1138,#497);
#453=LINE('',#1140,#498);
#454=LINE('',#1143,#499);
#455=LINE('',#1145,#500);
#456=LINE('',#1147,#501);
#457=LINE('',#1162,#502);
#458=LINE('',#1167,#503);
#459=LINE('',#1171,#504);
#460=LINE('',#1175,#505);
#461=LINE('',#1183,#506);
#462=LINE('',#1185,#507);
#463=LINE('',#1187,#508);
#464=LINE('',#1189,#509);
#465=LINE('',#1192,#510);
#466=LINE('',#1193,#511);
#467=LINE('',#1195,#512);
#468=LINE('',#1198,#513);
#469=LINE('',#1199,#514);
#470=LINE('',#1201,#515);
#471=LINE('',#1205,#516);
#472=LINE('',#1207,#517);
#473=LINE('',#1209,#518);
#474=LINE('',#1279,#519);
#475=LINE('',#1281,#520);
#476=LINE('',#1285,#521);
#477=LINE('',#1289,#522);
#478=LINE('',#1291,#523);
#479=LINE('',#1293,#524);
#480=LINE('',#1295,#525);
#481=LINE('',#1297,#526);
#482=LINE('',#1301,#527);
#483=LINE('',#1303,#528);
#484=VECTOR('',#866,1.);
#485=VECTOR('',#869,1.);
#486=VECTOR('',#872,1.);
#487=VECTOR('',#873,1.);
#488=VECTOR('',#874,1.);
#489=VECTOR('',#875,1.);
#490=VECTOR('',#878,1.);
#491=VECTOR('',#879,1.);
#492=VECTOR('',#880,1.);
#493=VECTOR('',#881,1.);
#494=VECTOR('',#884,1.);
#495=VECTOR('',#885,1.);
#496=VECTOR('',#886,1.);
#497=VECTOR('',#887,1.);
#498=VECTOR('',#890,1.);
#499=VECTOR('',#891,1.);
#500=VECTOR('',#892,1.);
#501=VECTOR('',#893,1.);
#502=VECTOR('',#914,1.);
#503=VECTOR('',#917,1.);
#504=VECTOR('',#920,1.);
#505=VECTOR('',#923,1.);
#506=VECTOR('',#936,1.);
#507=VECTOR('',#937,1.);
#508=VECTOR('',#938,1.);
#509=VECTOR('',#941,1.);
#510=VECTOR('',#942,1.);
#511=VECTOR('',#943,1.);
#512=VECTOR('',#946,1.);
#513=VECTOR('',#947,1.);
#514=VECTOR('',#948,1.);
#515=VECTOR('',#949,1.);
#516=VECTOR('',#954,1.);
#517=VECTOR('',#955,1.);
#518=VECTOR('',#956,1.);
#519=VECTOR('',#1049,1.);
#520=VECTOR('',#1050,1.);
#521=VECTOR('',#1055,1.);
#522=VECTOR('',#1058,1.);
#523=VECTOR('',#1061,1.);
#524=VECTOR('',#1062,1.);
#525=VECTOR('',#1063,1.);
#526=VECTOR('',#1066,1.);
#527=VECTOR('',#1071,1.);
#528=VECTOR('',#1072,1.);
#529=EDGE_LOOP('',(#88,#89,#90,#91));
#530=EDGE_LOOP('',(#92,#93,#94,#95));
#531=EDGE_LOOP('',(#96,#97,#98,#99));
#532=EDGE_LOOP('',(#100,#101,#102,#103));
#533=EDGE_LOOP('',(#104,#105,#106,#107));
#534=EDGE_LOOP('',(#108,#109,#110,#111,#112,#113,#114,#115));
#535=EDGE_LOOP('',(#116));
#536=EDGE_LOOP('',(#117));
#537=EDGE_LOOP('',(#118));
#538=EDGE_LOOP('',(#119));
#539=EDGE_LOOP('',(#120,#121,#122,#123,#124,#125,#126,#127));
#540=EDGE_LOOP('',(#128,#129,#130,#131,#132,#133,#134,#135));
#541=EDGE_LOOP('',(#136,#137,#138,#139));
#542=EDGE_LOOP('',(#140,#141,#142,#143));
#543=EDGE_LOOP('',(#144,#145,#146,#147,#148,#149));
#544=EDGE_LOOP('',(#150,#151,#152,#153));
#545=EDGE_LOOP('',(#154));
#546=EDGE_LOOP('',(#155));
#547=EDGE_LOOP('',(#156));
#548=EDGE_LOOP('',(#157));
#549=EDGE_LOOP('',(#158,#159,#160,#161,#162,#163,#164,#165,#166,#167,#168));
#550=EDGE_LOOP('',(#169));
#551=EDGE_LOOP('',(#170));
#552=EDGE_LOOP('',(#171));
#553=EDGE_LOOP('',(#172));
#554=EDGE_LOOP('',(#173));
#555=EDGE_LOOP('',(#174));
#556=EDGE_LOOP('',(#175));
#557=EDGE_LOOP('',(#176));
#558=EDGE_LOOP('',(#177));
#559=EDGE_LOOP('',(#178));
#560=EDGE_LOOP('',(#179));
#561=EDGE_LOOP('',(#180));
#562=EDGE_LOOP('',(#181));
#563=EDGE_LOOP('',(#182));
#564=EDGE_LOOP('',(#183));
#565=EDGE_LOOP('',(#184));
#566=EDGE_LOOP('',(#185));
#567=EDGE_LOOP('',(#186));
#568=EDGE_LOOP('',(#187));
#569=EDGE_LOOP('',(#188));
#570=EDGE_LOOP('',(#189));
#571=EDGE_LOOP('',(#190));
#572=EDGE_LOOP('',(#191));
#573=EDGE_LOOP('',(#192));
#574=EDGE_LOOP('',(#193,#194,#195,#196));
#575=EDGE_LOOP('',(#197,#198));
#576=EDGE_LOOP('',(#199));
#577=EDGE_LOOP('',(#200,#201,#202,#203));
#578=EDGE_LOOP('',(#204,#205,#206,#207));
#579=EDGE_LOOP('',(#208,#209,#210,#211));
#580=EDGE_LOOP('',(#212,#213,#214,#215));
#581=EDGE_LOOP('',(#216,#217,#218,#219));
#582=EDGE_LOOP('',(#220,#221,#222,#223));
#583=EDGE_LOOP('',(#224,#225,#226,#227));
#584=EDGE_LOOP('',(#228,#229,#230,#231));
#585=EDGE_LOOP('',(#232,#233,#234,#235));
#586=EDGE_LOOP('',(#236,#237,#238,#239));
#587=EDGE_LOOP('',(#240,#241,#242,#243,#244,#245));
#588=EDGE_LOOP('',(#246,#247,#248,#249));
#589=EDGE_LOOP('',(#250,#251,#252,#253,#254,#255));
#590=EDGE_LOOP('',(#256,#257,#258,#259));
#591=EDGE_LOOP('',(#260,#261,#262,#263));
#592=EDGE_LOOP('',(#264));
#593=EDGE_LOOP('',(#265));
#594=EDGE_LOOP('',(#266));
#595=EDGE_LOOP('',(#267));
#596=EDGE_LOOP('',(#268));
#597=EDGE_LOOP('',(#269));
#598=EDGE_LOOP('',(#270));
#599=EDGE_LOOP('',(#271));
#600=EDGE_LOOP('',(#272));
#601=EDGE_LOOP('',(#273));
#602=EDGE_LOOP('',(#274));
#603=EDGE_LOOP('',(#275));
#604=FACE_BOUND('',#529,.T.);
#605=FACE_BOUND('',#530,.T.);
#606=FACE_BOUND('',#531,.T.);
#607=FACE_BOUND('',#532,.T.);
#608=FACE_BOUND('',#533,.T.);
#609=FACE_BOUND('',#534,.T.);
#610=FACE_BOUND('',#535,.T.);
#611=FACE_BOUND('',#536,.T.);
#612=FACE_BOUND('',#537,.T.);
#613=FACE_BOUND('',#538,.T.);
#614=FACE_BOUND('',#539,.T.);
#615=FACE_BOUND('',#540,.T.);
#616=FACE_BOUND('',#541,.T.);
#617=FACE_BOUND('',#542,.T.);
#618=FACE_BOUND('',#543,.T.);
#619=FACE_BOUND('',#544,.T.);
#620=FACE_BOUND('',#545,.T.);
#621=FACE_BOUND('',#546,.T.);
#622=FACE_BOUND('',#547,.T.);
#623=FACE_BOUND('',#548,.T.);
#624=FACE_BOUND('',#549,.T.);
#625=FACE_BOUND('',#550,.T.);
#626=FACE_BOUND('',#551,.T.);
#627=FACE_BOUND('',#552,.T.);
#628=FACE_BOUND('',#553,.T.);
#629=FACE_BOUND('',#554,.T.);
#630=FACE_BOUND('',#555,.T.);
#631=FACE_BOUND('',#556,.T.);
#632=FACE_BOUND('',#557,.T.);
#633=FACE_BOUND('',#558,.T.);
#634=FACE_BOUND('',#559,.T.);
#635=FACE_BOUND('',#560,.T.);
#636=FACE_BOUND('',#561,.T.);
#637=FACE_BOUND('',#562,.T.);
#638=FACE_BOUND('',#563,.T.);
#639=FACE_BOUND('',#564,.T.);
#640=FACE_BOUND('',#565,.T.);
#641=FACE_BOUND('',#566,.T.);
#642=FACE_BOUND('',#567,.T.);
#643=FACE_BOUND('',#568,.T.);
#644=FACE_BOUND('',#569,.T.);
#645=FACE_BOUND('',#570,.T.);
#646=FACE_BOUND('',#571,.T.);
#647=FACE_BOUND('',#572,.T.);
#648=FACE_BOUND('',#573,.T.);
#649=FACE_BOUND('',#574,.T.);
#650=FACE_BOUND('',#575,.T.);
#651=FACE_BOUND('',#576,.T.);
#652=FACE_BOUND('',#577,.T.);
#653=FACE_BOUND('',#578,.T.);
#654=FACE_BOUND('',#579,.T.);
#655=FACE_BOUND('',#580,.T.);
#656=FACE_BOUND('',#581,.T.);
#657=FACE_BOUND('',#582,.T.);
#658=FACE_BOUND('',#583,.T.);
#659=FACE_BOUND('',#584,.T.);
#660=FACE_BOUND('',#585,.T.);
#661=FACE_BOUND('',#586,.T.);
#662=FACE_BOUND('',#587,.T.);
#663=FACE_BOUND('',#588,.T.);
#664=FACE_BOUND('',#589,.T.);
#665=FACE_BOUND('',#590,.T.);
#666=FACE_BOUND('',#591,.T.);
#667=FACE_BOUND('',#592,.T.);
#668=FACE_BOUND('',#593,.T.);
#669=FACE_BOUND('',#594,.T.);
#670=FACE_BOUND('',#595,.T.);
#671=FACE_BOUND('',#596,.T.);
#672=FACE_BOUND('',#597,.T.);
#673=FACE_BOUND('',#598,.T.);
#674=FACE_BOUND('',#599,.T.);
#675=FACE_BOUND('',#600,.T.);
#676=FACE_BOUND('',#601,.T.);
#677=FACE_BOUND('',#602,.T.);
#678=FACE_BOUND('',#603,.T.);
#679=PLANE('',#765);
#680=PLANE('',#768);
#681=PLANE('',#769);
#682=PLANE('',#770);
#683=PLANE('',#771);
#684=PLANE('',#776);
#685=PLANE('',#789);
#686=PLANE('',#790);
#687=PLANE('',#791);
#688=PLANE('',#793);
#689=PLANE('',#794);
#690=PLANE('',#806);
#691=PLANE('',#810);
#692=PLANE('',#814);
#693=PLANE('',#818);
#694=PLANE('',#839);
#695=PLANE('',#843);
#696=PLANE('',#846);
#697=PLANE('',#847);
#698=PLANE('',#852);
#699=PLANE('',#855);
#700=PLANE('',#858);
#701=PLANE('',#861);
#702=ADVANCED_FACE('',(#604,#605),#679,.T.);
#703=ADVANCED_FACE('',(#606),#680,.F.);
#704=ADVANCED_FACE('',(#607),#681,.F.);
#705=ADVANCED_FACE('',(#608),#682,.T.);
#706=ADVANCED_FACE('',(#609),#683,.F.);
#707=ADVANCED_FACE('',(#610,#611,#612,#613,#614,#615),#684,.T.);
#708=ADVANCED_FACE('',(#616),#685,.T.);
#709=ADVANCED_FACE('',(#617),#686,.F.);
#710=ADVANCED_FACE('',(#618),#687,.F.);
#711=ADVANCED_FACE('',(#619),#688,.T.);
#712=ADVANCED_FACE('',(#620,#621,#622,#623,#624),#689,.T.);
#713=ADVANCED_FACE('',(#625,#626),#20,.F.);
#714=ADVANCED_FACE('',(#627),#690,.T.);
#715=ADVANCED_FACE('',(#628,#629),#21,.F.);
#716=ADVANCED_FACE('',(#630),#691,.T.);
#717=ADVANCED_FACE('',(#631,#632),#22,.F.);
#718=ADVANCED_FACE('',(#633),#692,.T.);
#719=ADVANCED_FACE('',(#634,#635),#23,.F.);
#720=ADVANCED_FACE('',(#636),#693,.T.);
#721=ADVANCED_FACE('',(#637,#638),#12,.F.);
#722=ADVANCED_FACE('',(#639,#640),#13,.F.);
#723=ADVANCED_FACE('',(#641,#642),#14,.F.);
#724=ADVANCED_FACE('',(#643,#644),#15,.F.);
#725=ADVANCED_FACE('',(#645,#646),#16,.F.);
#726=ADVANCED_FACE('',(#647,#648),#24,.F.);
#727=ADVANCED_FACE('',(#649),#17,.F.);
#728=ADVANCED_FACE('',(#650,#651),#18,.F.);
#729=ADVANCED_FACE('',(#652),#25,.T.);
#730=ADVANCED_FACE('',(#653),#26,.T.);
#731=ADVANCED_FACE('',(#654),#27,.T.);
#732=ADVANCED_FACE('',(#655),#28,.T.);
#733=ADVANCED_FACE('',(#656),#29,.F.);
#734=ADVANCED_FACE('',(#657),#30,.F.);
#735=ADVANCED_FACE('',(#658),#31,.F.);
#736=ADVANCED_FACE('',(#659),#32,.F.);
#737=ADVANCED_FACE('',(#660),#694,.F.);
#738=ADVANCED_FACE('',(#661),#33,.F.);
#739=ADVANCED_FACE('',(#662),#695,.F.);
#740=ADVANCED_FACE('',(#663),#34,.T.);
#741=ADVANCED_FACE('',(#664),#696,.F.);
#742=ADVANCED_FACE('',(#665),#697,.T.);
#743=ADVANCED_FACE('',(#666),#19,.T.);
#744=ADVANCED_FACE('',(#667,#668),#35,.F.);
#745=ADVANCED_FACE('',(#669),#698,.T.);
#746=ADVANCED_FACE('',(#670,#671),#36,.F.);
#747=ADVANCED_FACE('',(#672),#699,.T.);
#748=ADVANCED_FACE('',(#673,#674),#37,.F.);
#749=ADVANCED_FACE('',(#675),#700,.T.);
#750=ADVANCED_FACE('',(#676,#677),#38,.F.);
#751=ADVANCED_FACE('',(#678),#701,.T.);
#752=CLOSED_SHELL('',(#702,#703,#704,#705,#706,#707,#708,#709,#710,#711,
#712,#713,#714,#715,#716,#717,#718,#719,#720,#721,#722,#723,#724,#725,#726,
#727,#728,#729,#730,#731,#732,#733,#734,#735,#736,#737,#738,#739,#740,#741,
#742,#743,#744,#745,#746,#747,#748,#749,#750,#751));
#753=STYLED_ITEM('',(#754),#761);
#754=PRESENTATION_STYLE_ASSIGNMENT((#755));
#755=SURFACE_STYLE_USAGE(.BOTH.,#756);
#756=SURFACE_SIDE_STYLE('',(#757));
#757=SURFACE_STYLE_FILL_AREA(#758);
#758=FILL_AREA_STYLE('',(#759));
#759=FILL_AREA_STYLE_COLOUR('',#760);
#760=COLOUR_RGB('',0.615686274509804,0.811764705882353,0.929411764705882);
#761=MANIFOLD_SOLID_BREP('Part 1',#752);
#762=SHAPE_DEFINITION_REPRESENTATION(#1329,#763);
#763=SHAPE_REPRESENTATION('Part 1',(#764),#1324);
#764=AXIS2_PLACEMENT_3D('',#1103,#862,#863);
#765=AXIS2_PLACEMENT_3D('',#1104,#864,#865);
#766=AXIS2_PLACEMENT_3D('',#1108,#867,#868);
#767=AXIS2_PLACEMENT_3D('',#1112,#870,#871);
#768=AXIS2_PLACEMENT_3D('',#1121,#876,#877);
#769=AXIS2_PLACEMENT_3D('',#1130,#882,#883);
#770=AXIS2_PLACEMENT_3D('',#1139,#888,#889);
#771=AXIS2_PLACEMENT_3D('',#1148,#894,#895);
#772=AXIS2_PLACEMENT_3D('',#1149,#896,#897);
#773=AXIS2_PLACEMENT_3D('',#1150,#898,#899);
#774=AXIS2_PLACEMENT_3D('',#1151,#900,#901);
#775=AXIS2_PLACEMENT_3D('',#1152,#902,#903);
#776=AXIS2_PLACEMENT_3D('',#1153,#904,#905);
#777=AXIS2_PLACEMENT_3D('',#1154,#906,#907);
#778=AXIS2_PLACEMENT_3D('',#1156,#908,#909);
#779=AXIS2_PLACEMENT_3D('',#1158,#910,#911);
#780=AXIS2_PLACEMENT_3D('',#1160,#912,#913);
#781=AXIS2_PLACEMENT_3D('',#1165,#915,#916);
#782=AXIS2_PLACEMENT_3D('',#1169,#918,#919);
#783=AXIS2_PLACEMENT_3D('',#1173,#921,#922);
#784=AXIS2_PLACEMENT_3D('',#1177,#924,#925);
#785=AXIS2_PLACEMENT_3D('',#1178,#926,#927);
#786=AXIS2_PLACEMENT_3D('',#1179,#928,#929);
#787=AXIS2_PLACEMENT_3D('',#1180,#930,#931);
#788=AXIS2_PLACEMENT_3D('',#1181,#932,#933);
#789=AXIS2_PLACEMENT_3D('',#1182,#934,#935);
#790=AXIS2_PLACEMENT_3D('',#1188,#939,#940);
#791=AXIS2_PLACEMENT_3D('',#1194,#944,#945);
#792=AXIS2_PLACEMENT_3D('',#1203,#950,#951);
#793=AXIS2_PLACEMENT_3D('',#1204,#952,#953);
#794=AXIS2_PLACEMENT_3D('',#1210,#957,#958);
#795=AXIS2_PLACEMENT_3D('',#1211,#959,#960);
#796=AXIS2_PLACEMENT_3D('',#1213,#961,#962);
#797=AXIS2_PLACEMENT_3D('',#1215,#963,#964);
#798=AXIS2_PLACEMENT_3D('',#1217,#965,#966);
#799=AXIS2_PLACEMENT_3D('',#1219,#967,#968);
#800=AXIS2_PLACEMENT_3D('',#1220,#969,#970);
#801=AXIS2_PLACEMENT_3D('',#1230,#971,#972);
#802=AXIS2_PLACEMENT_3D('',#1231,#973,#974);
#803=AXIS2_PLACEMENT_3D('',#1232,#975,#976);
#804=AXIS2_PLACEMENT_3D('',#1233,#977,#978);
#805=AXIS2_PLACEMENT_3D('',#1235,#979,#980);
#806=AXIS2_PLACEMENT_3D('',#1237,#981,#982);
#807=AXIS2_PLACEMENT_3D('',#1238,#983,#984);
#808=AXIS2_PLACEMENT_3D('',#1239,#985,#986);
#809=AXIS2_PLACEMENT_3D('',#1241,#987,#988);
#810=AXIS2_PLACEMENT_3D('',#1243,#989,#990);
#811=AXIS2_PLACEMENT_3D('',#1244,#991,#992);
#812=AXIS2_PLACEMENT_3D('',#1245,#993,#994);
#813=AXIS2_PLACEMENT_3D('',#1247,#995,#996);
#814=AXIS2_PLACEMENT_3D('',#1249,#997,#998);
#815=AXIS2_PLACEMENT_3D('',#1250,#999,#1000);
#816=AXIS2_PLACEMENT_3D('',#1251,#1001,#1002);
#817=AXIS2_PLACEMENT_3D('',#1253,#1003,#1004);
#818=AXIS2_PLACEMENT_3D('',#1255,#1005,#1006);
#819=AXIS2_PLACEMENT_3D('',#1256,#1007,#1008);
#820=AXIS2_PLACEMENT_3D('',#1258,#1009,#1010);
#821=AXIS2_PLACEMENT_3D('',#1259,#1011,#1012);
#822=AXIS2_PLACEMENT_3D('',#1260,#1013,#1014);
#823=AXIS2_PLACEMENT_3D('',#1261,#1015,#1016);
#824=AXIS2_PLACEMENT_3D('',#1262,#1017,#1018);
#825=AXIS2_PLACEMENT_3D('',#1263,#1019,#1020);
#826=AXIS2_PLACEMENT_3D('',#1264,#1021,#1022);
#827=AXIS2_PLACEMENT_3D('',#1265,#1023,#1024);
#828=AXIS2_PLACEMENT_3D('',#1267,#1025,#1026);
#829=AXIS2_PLACEMENT_3D('',#1268,#1027,#1028);
#830=AXIS2_PLACEMENT_3D('',#1269,#1029,#1030);
#831=AXIS2_PLACEMENT_3D('',#1270,#1031,#1032);
#832=AXIS2_PLACEMENT_3D('',#1271,#1033,#1034);
#833=AXIS2_PLACEMENT_3D('',#1272,#1035,#1036);
#834=AXIS2_PLACEMENT_3D('',#1273,#1037,#1038);
#835=AXIS2_PLACEMENT_3D('',#1274,#1039,#1040);
#836=AXIS2_PLACEMENT_3D('',#1275,#1041,#1042);
#837=AXIS2_PLACEMENT_3D('',#1276,#1043,#1044);
#838=AXIS2_PLACEMENT_3D('',#1277,#1045,#1046);
#839=AXIS2_PLACEMENT_3D('',#1278,#1047,#1048);
#840=AXIS2_PLACEMENT_3D('',#1283,#1051,#1052);
#841=AXIS2_PLACEMENT_3D('',#1284,#1053,#1054);
#842=AXIS2_PLACEMENT_3D('',#1287,#1056,#1057);
#843=AXIS2_PLACEMENT_3D('',#1290,#1059,#1060);
#844=AXIS2_PLACEMENT_3D('',#1296,#1064,#1065);
#845=AXIS2_PLACEMENT_3D('',#1299,#1067,#1068);
#846=AXIS2_PLACEMENT_3D('',#1300,#1069,#1070);
#847=AXIS2_PLACEMENT_3D('',#1304,#1073,#1074);
#848=AXIS2_PLACEMENT_3D('',#1305,#1075,#1076);
#849=AXIS2_PLACEMENT_3D('',#1306,#1077,#1078);
#850=AXIS2_PLACEMENT_3D('',#1307,#1079,#1080);
#851=AXIS2_PLACEMENT_3D('',#1308,#1081,#1082);
#852=AXIS2_PLACEMENT_3D('',#1310,#1083,#1084);
#853=AXIS2_PLACEMENT_3D('',#1311,#1085,#1086);
#854=AXIS2_PLACEMENT_3D('',#1312,#1087,#1088);
#855=AXIS2_PLACEMENT_3D('',#1314,#1089,#1090);
#856=AXIS2_PLACEMENT_3D('',#1315,#1091,#1092);
#857=AXIS2_PLACEMENT_3D('',#1316,#1093,#1094);
#858=AXIS2_PLACEMENT_3D('',#1318,#1095,#1096);
#859=AXIS2_PLACEMENT_3D('',#1319,#1097,#1098);
#860=AXIS2_PLACEMENT_3D('',#1320,#1099,#1100);
#861=AXIS2_PLACEMENT_3D('',#1322,#1101,#1102);
#862=DIRECTION('',(0.,0.,1.));
#863=DIRECTION('',(1.,0.,0.));
#864=DIRECTION('',(0.,1.,0.));
#865=DIRECTION('',(0.,0.,1.));
#866=DIRECTION('',(-1.,0.,0.));
#867=DIRECTION('',(0.,1.,0.));
#868=DIRECTION('',(0.,0.,1.));
#869=DIRECTION('',(-1.,0.,0.));
#870=DIRECTION('',(0.,1.,0.));
#871=DIRECTION('',(0.,0.,1.));
#872=DIRECTION('',(1.,0.,0.));
#873=DIRECTION('',(0.,0.,-1.));
#874=DIRECTION('',(1.,0.,0.));
#875=DIRECTION('',(0.,0.,-1.));
#876=DIRECTION('',(1.,0.,0.));
#877=DIRECTION('',(0.,0.,-1.));
#878=DIRECTION('',(0.,-1.,0.));
#879=DIRECTION('',(0.,0.,-1.));
#880=DIRECTION('',(0.,-1.,0.));
#881=DIRECTION('',(0.,0.,-1.));
#882=DIRECTION('',(0.,1.,0.));
#883=DIRECTION('',(0.,0.,1.));
#884=DIRECTION('',(1.,0.,0.));
#885=DIRECTION('',(0.,0.,-1.));
#886=DIRECTION('',(1.,0.,0.));
#887=DIRECTION('',(0.,0.,-1.));
#888=DIRECTION('',(1.,0.,0.));
#889=DIRECTION('',(0.,0.,-1.));
#890=DIRECTION('',(0.,-1.,0.));
#891=DIRECTION('',(0.,0.,-1.));
#892=DIRECTION('',(0.,-1.,0.));
#893=DIRECTION('',(0.,0.,-1.));
#894=DIRECTION('',(0.,0.,1.));
#895=DIRECTION('',(1.,0.,0.));
#896=DIRECTION('',(0.,0.,1.));
#897=DIRECTION('',(1.,0.,0.));
#898=DIRECTION('',(0.,0.,1.));
#899=DIRECTION('',(1.,0.,0.));
#900=DIRECTION('',(0.,0.,1.));
#901=DIRECTION('',(1.,0.,0.));
#902=DIRECTION('',(0.,0.,1.));
#903=DIRECTION('',(1.,0.,0.));
#904=DIRECTION('',(0.,0.,1.));
#905=DIRECTION('',(1.,0.,0.));
#906=DIRECTION('',(0.,0.,1.));
#907=DIRECTION('',(1.,0.,0.));
#908=DIRECTION('',(0.,0.,1.));
#909=DIRECTION('',(1.,0.,0.));
#910=DIRECTION('',(0.,0.,1.));
#911=DIRECTION('',(1.,0.,0.));
#912=DIRECTION('',(0.,0.,1.));
#913=DIRECTION('',(1.,0.,0.));
#914=DIRECTION('',(0.,-1.,0.));
#915=DIRECTION('',(0.,0.,1.));
#916=DIRECTION('',(1.,0.,0.));
#917=DIRECTION('',(1.,0.,0.));
#918=DIRECTION('',(0.,0.,1.));
#919=DIRECTION('',(1.,0.,0.));
#920=DIRECTION('',(0.,-1.,0.));
#921=DIRECTION('',(0.,0.,1.));
#922=DIRECTION('',(1.,0.,0.));
#923=DIRECTION('',(1.,0.,0.));
#924=DIRECTION('',(0.,0.,1.));
#925=DIRECTION('',(1.,0.,0.));
#926=DIRECTION('',(0.,0.,1.));
#927=DIRECTION('',(1.,0.,0.));
#928=DIRECTION('',(0.,0.,1.));
#929=DIRECTION('',(1.,0.,0.));
#930=DIRECTION('',(0.,0.,1.));
#931=DIRECTION('',(1.,0.,0.));
#932=DIRECTION('',(0.,0.,1.));
#933=DIRECTION('',(1.,0.,0.));
#934=DIRECTION('',(0.,1.,0.));
#935=DIRECTION('',(0.,0.,1.));
#936=DIRECTION('',(0.,0.,-1.));
#937=DIRECTION('',(-1.,0.,0.));
#938=DIRECTION('',(0.,0.,-1.));
#939=DIRECTION('',(1.,0.,0.));
#940=DIRECTION('',(0.,0.,-1.));
#941=DIRECTION('',(0.,1.,0.));
#942=DIRECTION('',(0.,0.,-1.));
#943=DIRECTION('',(0.,0.,-1.));
#944=DIRECTION('',(0.,1.,0.));
#945=DIRECTION('',(0.,0.,1.));
#946=DIRECTION('',(-1.,0.,0.));
#947=DIRECTION('',(0.,0.,-1.));
#948=DIRECTION('',(0.,0.,-1.));
#949=DIRECTION('',(-1.,0.,0.));
#950=DIRECTION('',(0.,1.,0.));
#951=DIRECTION('',(0.,0.,1.));
#952=DIRECTION('',(1.,0.,0.));
#953=DIRECTION('',(0.,0.,-1.));
#954=DIRECTION('',(0.,0.,-1.));
#955=DIRECTION('',(0.,1.,0.));
#956=DIRECTION('',(0.,0.,-1.));
#957=DIRECTION('',(0.,0.,1.));
#958=DIRECTION('',(1.,0.,0.));
#959=DIRECTION('',(0.,0.,1.));
#960=DIRECTION('',(1.,0.,0.));
#961=DIRECTION('',(0.,0.,1.));
#962=DIRECTION('',(1.,0.,0.));
#963=DIRECTION('',(0.,0.,1.));
#964=DIRECTION('',(1.,0.,0.));
#965=DIRECTION('',(0.,0.,1.));
#966=DIRECTION('',(1.,0.,0.));
#967=DIRECTION('',(0.,0.,1.));
#968=DIRECTION('',(1.,0.,0.));
#969=DIRECTION('',(0.,0.,1.));
#970=DIRECTION('',(1.,0.,0.));
#971=DIRECTION('',(0.,0.,1.));
#972=DIRECTION('',(1.,0.,0.));
#973=DIRECTION('',(0.,0.,1.));
#974=DIRECTION('',(1.,0.,0.));
#975=DIRECTION('',(0.,0.,1.));
#976=DIRECTION('',(1.,0.,0.));
#977=DIRECTION('',(0.,0.,1.));
#978=DIRECTION('',(1.,0.,0.));
#979=DIRECTION('',(0.,0.,1.));
#980=DIRECTION('',(1.,0.,0.));
#981=DIRECTION('',(0.,0.,1.));
#982=DIRECTION('',(1.,0.,0.));
#983=DIRECTION('',(0.,0.,1.));
#984=DIRECTION('',(1.,0.,0.));
#985=DIRECTION('',(0.,0.,1.));
#986=DIRECTION('',(1.,0.,0.));
#987=DIRECTION('',(0.,0.,1.));
#988=DIRECTION('',(1.,0.,0.));
#989=DIRECTION('',(0.,0.,1.));
#990=DIRECTION('',(1.,0.,0.));
#991=DIRECTION('',(0.,0.,1.));
#992=DIRECTION('',(1.,0.,0.));
#993=DIRECTION('',(0.,0.,1.));
#994=DIRECTION('',(1.,0.,0.));
#995=DIRECTION('',(0.,0.,1.));
#996=DIRECTION('',(1.,0.,0.));
#997=DIRECTION('',(0.,0.,1.));
#998=DIRECTION('',(1.,0.,0.));
#999=DIRECTION('',(0.,0.,1.));
#1000=DIRECTION('',(1.,0.,0.));
#1001=DIRECTION('',(0.,0.,1.));
#1002=DIRECTION('',(1.,0.,0.));
#1003=DIRECTION('',(0.,0.,1.));
#1004=DIRECTION('',(1.,0.,0.));
#1005=DIRECTION('',(0.,0.,1.));
#1006=DIRECTION('',(1.,0.,0.));
#1007=DIRECTION('',(0.,0.,1.));
#1008=DIRECTION('',(1.,0.,0.));
#1009=DIRECTION('',(0.,0.,1.));
#1010=DIRECTION('',(1.,0.,0.));
#1011=DIRECTION('',(0.,0.,1.));
#1012=DIRECTION('',(1.,0.,0.));
#1013=DIRECTION('',(0.,0.,1.));
#1014=DIRECTION('',(1.,0.,0.));
#1015=DIRECTION('',(0.,0.,1.));
#1016=DIRECTION('',(1.,0.,0.));
#1017=DIRECTION('',(0.,0.,1.));
#1018=DIRECTION('',(1.,0.,0.));
#1019=DIRECTION('',(0.,1.,0.));
#1020=DIRECTION('',(0.,0.,1.));
#1021=DIRECTION('',(0.,1.,0.));
#1022=DIRECTION('',(0.,0.,1.));
#1023=DIRECTION('',(0.,1.,0.));
#1024=DIRECTION('',(0.,0.,1.));
#1025=DIRECTION('',(0.,-1.,0.));
#1026=DIRECTION('',(0.,0.,-1.));
#1027=DIRECTION('',(0.,1.,0.));
#1028=DIRECTION('',(0.,0.,1.));
#1029=DIRECTION('',(0.,1.,0.));
#1030=DIRECTION('',(0.,0.,1.));
#1031=DIRECTION('',(0.,0.,-1.));
#1032=DIRECTION('',(-1.,0.,0.));
#1033=DIRECTION('',(0.,0.,1.));
#1034=DIRECTION('',(1.,0.,0.));
#1035=DIRECTION('',(0.,0.,-1.));
#1036=DIRECTION('',(-1.,0.,0.));
#1037=DIRECTION('',(0.,0.,1.));
#1038=DIRECTION('',(1.,0.,0.));
#1039=DIRECTION('',(0.,0.,-1.));
#1040=DIRECTION('',(-1.,0.,0.));
#1041=DIRECTION('',(0.,0.,1.));
#1042=DIRECTION('',(1.,0.,0.));
#1043=DIRECTION('',(0.,0.,1.));
#1044=DIRECTION('',(1.,0.,0.));
#1045=DIRECTION('',(0.,0.,-1.));
#1046=DIRECTION('',(-1.,0.,0.));
#1047=DIRECTION('',(0.,1.,0.));
#1048=DIRECTION('',(-1.,0.,0.));
#1049=DIRECTION('',(-1.,0.,0.));
#1050=DIRECTION('',(-1.,0.,0.));
#1051=DIRECTION('',(0.,1.,0.));
#1052=DIRECTION('',(0.,0.,1.));
#1053=DIRECTION('',(0.,-1.,0.));
#1054=DIRECTION('',(0.,0.,-1.));
#1055=DIRECTION('',(0.,-1.,0.));
#1056=DIRECTION('',(0.,1.,0.));
#1057=DIRECTION('',(0.,0.,1.));
#1058=DIRECTION('',(0.,-1.,0.));
#1059=DIRECTION('',(0.,0.,1.));
#1060=DIRECTION('',(1.,0.,0.));
#1061=DIRECTION('',(0.,-1.,0.));
#1062=DIRECTION('',(-0.707106781186548,-0.707106781186547,0.));
#1063=DIRECTION('',(-1.,0.,0.));
#1064=DIRECTION('',(0.,-1.,0.));
#1065=DIRECTION('',(0.,0.,-1.));
#1066=DIRECTION('',(0.,-1.,0.));
#1067=DIRECTION('',(0.,1.,0.));
#1068=DIRECTION('',(0.,0.,1.));
#1069=DIRECTION('',(0.,0.,1.));
#1070=DIRECTION('',(1.,0.,0.));
#1071=DIRECTION('',(-1.,0.,0.));
#1072=DIRECTION('',(-0.707106781186548,0.707106781186547,0.));
#1073=DIRECTION('',(0.,1.,0.));
#1074=DIRECTION('',(-1.,0.,0.));
#1075=DIRECTION('',(0.,1.,0.));
#1076=DIRECTION('',(0.,0.,1.));
#1077=DIRECTION('',(0.,-1.,0.));
#1078=DIRECTION('',(0.,0.,-1.));
#1079=DIRECTION('',(0.,0.,1.));
#1080=DIRECTION('',(1.,0.,0.));
#1081=DIRECTION('',(0.,0.,1.));
#1082=DIRECTION('',(1.,0.,0.));
#1083=DIRECTION('',(0.,0.,1.));
#1084=DIRECTION('',(1.,0.,0.));
#1085=DIRECTION('',(0.,0.,1.));
#1086=DIRECTION('',(1.,0.,0.));
#1087=DIRECTION('',(0.,0.,1.));
#1088=DIRECTION('',(1.,0.,0.));
#1089=DIRECTION('',(0.,0.,1.));
#1090=DIRECTION('',(1.,0.,0.));
#1091=DIRECTION('',(0.,0.,1.));
#1092=DIRECTION('',(1.,0.,0.));
#1093=DIRECTION('',(0.,0.,1.));
#1094=DIRECTION('',(1.,0.,0.));
#1095=DIRECTION('',(0.,0.,1.));
#1096=DIRECTION('',(1.,0.,0.));
#1097=DIRECTION('',(0.,0.,1.));
#1098=DIRECTION('',(1.,0.,0.));
#1099=DIRECTION('',(0.,0.,1.));
#1100=DIRECTION('',(1.,0.,0.));
#1101=DIRECTION('',(0.,0.,1.));
#1102=DIRECTION('',(1.,0.,0.));
#1103=CARTESIAN_POINT('',(0.,0.,0.));
#1104=CARTESIAN_POINT('',(0.,0.039,0.006));
#1105=CARTESIAN_POINT('',(0.0095,0.039,0.0145));
#1106=CARTESIAN_POINT('',(0.0105,0.039,0.0145));
#1107=CARTESIAN_POINT('',(0.009,0.039,0.0145));
#1108=CARTESIAN_POINT('',(0.,0.039,0.0145));
#1109=CARTESIAN_POINT('',(-0.0105,0.039,0.0145));
#1110=CARTESIAN_POINT('',(-0.0095,0.039,0.0145));
#1111=CARTESIAN_POINT('',(-0.009,0.039,0.0145));
#1112=CARTESIAN_POINT('',(0.,0.039,0.0145));
#1113=CARTESIAN_POINT('',(0.,0.039,0.));
#1114=CARTESIAN_POINT('',(-0.02575,0.039,0.));
#1115=CARTESIAN_POINT('',(0.02575,0.039,0.));
#1116=CARTESIAN_POINT('',(-0.02575,0.039,0.035));
#1117=CARTESIAN_POINT('',(-0.02575,0.039,0.035));
#1118=CARTESIAN_POINT('',(0.,0.039,0.035));
#1119=CARTESIAN_POINT('',(0.02575,0.039,0.035));
#1120=CARTESIAN_POINT('',(0.02575,0.039,0.006));
#1121=CARTESIAN_POINT('',(-0.0265,0.,0.006));
#1122=CARTESIAN_POINT('',(-0.0265,0.,0.));
#1123=CARTESIAN_POINT('',(-0.0265,0.03825,0.));
#1124=CARTESIAN_POINT('',(-0.0265,-0.03825,0.));
#1125=CARTESIAN_POINT('',(-0.0265,-0.03825,0.006));
#1126=CARTESIAN_POINT('',(-0.0265,-0.03825,0.035));
#1127=CARTESIAN_POINT('',(-0.0265,0.,0.035));
#1128=CARTESIAN_POINT('',(-0.0265,0.03825,0.035));
#1129=CARTESIAN_POINT('',(-0.0265,0.03825,0.));
#1130=CARTESIAN_POINT('',(0.,-0.039,0.006));
#1131=CARTESIAN_POINT('',(0.,-0.039,0.035));
#1132=CARTESIAN_POINT('',(-0.02575,-0.039,0.035));
#1133=CARTESIAN_POINT('',(0.02575,-0.039,0.035));
#1134=CARTESIAN_POINT('',(-0.02575,-0.039,0.006));
#1135=CARTESIAN_POINT('',(-0.02575,-0.039,0.));
#1136=CARTESIAN_POINT('',(0.,-0.039,0.));
#1137=CARTESIAN_POINT('',(0.02575,-0.039,0.));
#1138=CARTESIAN_POINT('',(0.02575,-0.039,0.035));
#1139=CARTESIAN_POINT('',(0.0265,0.,0.006));
#1140=CARTESIAN_POINT('',(0.0265,0.,0.));
#1141=CARTESIAN_POINT('',(0.0265,0.03825,0.));
#1142=CARTESIAN_POINT('',(0.0265,-0.03825,0.));
#1143=CARTESIAN_POINT('',(0.0265,0.03825,0.006));
#1144=CARTESIAN_POINT('',(0.0265,0.03825,0.035));
#1145=CARTESIAN_POINT('',(0.0265,0.,0.035));
#1146=CARTESIAN_POINT('',(0.0265,-0.03825,0.035));
#1147=CARTESIAN_POINT('',(0.0265,-0.03825,0.));
#1148=CARTESIAN_POINT('',(0.,0.,0.));
#1149=CARTESIAN_POINT('',(-0.02575,-0.03825,0.));
#1150=CARTESIAN_POINT('',(-0.02575,0.03825,0.));
#1151=CARTESIAN_POINT('',(0.02575,0.03825,0.));
#1152=CARTESIAN_POINT('',(0.02575,-0.03825,0.));
#1153=CARTESIAN_POINT('',(0.,0.,0.035));
#1154=CARTESIAN_POINT('',(0.0240556349186104,-0.0365556349186104,0.035));
#1155=CARTESIAN_POINT('',(0.0261556349186104,-0.0365556349186104,0.035));
#1156=CARTESIAN_POINT('',(-0.0240556349186104,-0.0365556349186104,0.035));
#1157=CARTESIAN_POINT('',(-0.0219556349186104,-0.0365556349186104,0.035));
#1158=CARTESIAN_POINT('',(0.0240556349186104,0.0365556349186104,0.035));
#1159=CARTESIAN_POINT('',(0.0261556349186104,0.0365556349186104,0.035));
#1160=CARTESIAN_POINT('',(-0.0240556349186104,0.0365556349186104,0.035));
#1161=CARTESIAN_POINT('',(-0.0219556349186104,0.0365556349186104,0.035));
#1162=CARTESIAN_POINT('',(-0.0225,0.,0.035));
#1163=CARTESIAN_POINT('',(-0.0225,0.03425,0.035));
#1164=CARTESIAN_POINT('',(-0.0225,-0.03425,0.035));
#1165=CARTESIAN_POINT('',(-0.02175,0.03425,0.035));
#1166=CARTESIAN_POINT('',(-0.02175,0.035,0.035));
#1167=CARTESIAN_POINT('',(0.,0.035,0.035));
#1168=CARTESIAN_POINT('',(0.02175,0.035,0.035));
#1169=CARTESIAN_POINT('',(0.02175,0.03425,0.035));
#1170=CARTESIAN_POINT('',(0.0225,0.03425,0.035));
#1171=CARTESIAN_POINT('',(0.0225,0.,0.035));
#1172=CARTESIAN_POINT('',(0.0225,-0.03425,0.035));
#1173=CARTESIAN_POINT('',(0.02175,-0.03425,0.035));
#1174=CARTESIAN_POINT('',(0.02175,-0.035,0.035));
#1175=CARTESIAN_POINT('',(0.,-0.035,0.035));
#1176=CARTESIAN_POINT('',(-0.02175,-0.035,0.035));
#1177=CARTESIAN_POINT('',(-0.02175,-0.03425,0.035));
#1178=CARTESIAN_POINT('',(-0.02575,-0.03825,0.035));
#1179=CARTESIAN_POINT('',(0.02575,-0.03825,0.035));
#1180=CARTESIAN_POINT('',(0.02575,0.03825,0.035));
#1181=CARTESIAN_POINT('',(-0.02575,0.03825,0.035));
#1182=CARTESIAN_POINT('',(0.,-0.035,0.035));
#1183=CARTESIAN_POINT('',(0.02175,-0.035,0.035));
#1184=CARTESIAN_POINT('',(0.02175,-0.035,0.006));
#1185=CARTESIAN_POINT('',(0.,-0.035,0.006));
#1186=CARTESIAN_POINT('',(-0.02175,-0.035,0.006));
#1187=CARTESIAN_POINT('',(-0.02175,-0.035,0.035));
#1188=CARTESIAN_POINT('',(0.0225,0.,0.035));
#1189=CARTESIAN_POINT('',(0.0225,0.,0.006));
#1190=CARTESIAN_POINT('',(0.0225,-0.03425,0.006));
#1191=CARTESIAN_POINT('',(0.0225,0.03425,0.006));
#1192=CARTESIAN_POINT('',(0.0225,-0.03425,0.035));
#1193=CARTESIAN_POINT('',(0.0225,0.03425,0.006));
#1194=CARTESIAN_POINT('',(0.,0.035,0.035));
#1195=CARTESIAN_POINT('',(0.,0.035,0.006));
#1196=CARTESIAN_POINT('',(0.02175,0.035,0.006));
#1197=CARTESIAN_POINT('',(0.00295803989154981,0.035,0.006));
#1198=CARTESIAN_POINT('',(0.02175,0.035,0.035));
#1199=CARTESIAN_POINT('',(-0.02175,0.035,0.035));
#1200=CARTESIAN_POINT('',(-0.02175,0.035,0.006));
#1201=CARTESIAN_POINT('',(0.,0.035,0.006));
#1202=CARTESIAN_POINT('',(-0.0029580398915498,0.035,0.006));
#1203=CARTESIAN_POINT('',(0.,0.035,0.0145));
#1204=CARTESIAN_POINT('',(-0.0225,0.,0.035));
#1205=CARTESIAN_POINT('',(-0.0225,-0.03425,0.006));
#1206=CARTESIAN_POINT('',(-0.0225,-0.03425,0.006));
#1207=CARTESIAN_POINT('',(-0.0225,0.,0.006));
#1208=CARTESIAN_POINT('',(-0.0225,0.03425,0.006));
#1209=CARTESIAN_POINT('',(-0.0225,0.03425,0.035));
#1210=CARTESIAN_POINT('',(0.,0.,0.006));
#1211=CARTESIAN_POINT('',(-0.0115,-0.029,0.006));
#1212=CARTESIAN_POINT('',(-0.0099,-0.029,0.006));
#1213=CARTESIAN_POINT('',(0.0115,0.029,0.006));
#1214=CARTESIAN_POINT('',(0.0131,0.029,0.006));
#1215=CARTESIAN_POINT('',(-0.0115,0.029,0.006));
#1216=CARTESIAN_POINT('',(-0.0099,0.029,0.006));
#1217=CARTESIAN_POINT('',(0.0115,-0.029,0.006));
#1218=CARTESIAN_POINT('',(0.0131,-0.029,0.006));
#1219=CARTESIAN_POINT('',(0.02175,-0.03425,0.006));
#1220=CARTESIAN_POINT('',(0.02175,0.03425,0.006));
#1221=CARTESIAN_POINT('',(0.00295803989154981,0.035,0.006));
#1222=CARTESIAN_POINT('',(0.00199962303411086,0.0353150039218931,0.006));
#1223=CARTESIAN_POINT('',(0.00101095005921133,0.0355,0.006));
#1224=CARTESIAN_POINT('',(1.3745364611781E-18,0.0355,0.006));
#1225=CARTESIAN_POINT('',(1.3010426069826E-18,0.0355,0.006));
#1226=CARTESIAN_POINT('',(1.3010426069826E-18,0.0355,0.006));
#1227=CARTESIAN_POINT('',(-0.00101418510567422,0.0355,0.006));
#1228=CARTESIAN_POINT('',(-0.00199723294933212,0.0353157894736842,0.006));
#1229=CARTESIAN_POINT('',(-0.0029580398915498,0.035,0.006));
#1230=CARTESIAN_POINT('',(-0.02175,0.03425,0.006));
#1231=CARTESIAN_POINT('',(-0.02175,-0.03425,0.006));
#1232=CARTESIAN_POINT('',(-0.0240556349186104,0.0365556349186104,0.03));
#1233=CARTESIAN_POINT('',(-0.0240556349186104,0.0365556349186104,0.0345));
#1234=CARTESIAN_POINT('',(-0.0224556349186104,0.0365556349186104,0.0345));
#1235=CARTESIAN_POINT('',(-0.0240556349186104,0.0365556349186104,0.03));
#1236=CARTESIAN_POINT('',(-0.0224556349186104,0.0365556349186104,0.03));
#1237=CARTESIAN_POINT('',(0.,0.,0.03));
#1238=CARTESIAN_POINT('',(0.0240556349186104,0.0365556349186104,0.03));
#1239=CARTESIAN_POINT('',(0.0240556349186104,0.0365556349186104,0.0345));
#1240=CARTESIAN_POINT('',(0.0256556349186104,0.0365556349186104,0.0345));
#1241=CARTESIAN_POINT('',(0.0240556349186104,0.0365556349186104,0.03));
#1242=CARTESIAN_POINT('',(0.0256556349186104,0.0365556349186104,0.03));
#1243=CARTESIAN_POINT('',(0.,0.,0.03));
#1244=CARTESIAN_POINT('',(0.0240556349186104,-0.0365556349186104,0.03));
#1245=CARTESIAN_POINT('',(0.0240556349186104,-0.0365556349186104,0.0345));
#1246=CARTESIAN_POINT('',(0.0256556349186104,-0.0365556349186104,0.0345));
#1247=CARTESIAN_POINT('',(0.0240556349186104,-0.0365556349186104,0.03));
#1248=CARTESIAN_POINT('',(0.0256556349186104,-0.0365556349186104,0.03));
#1249=CARTESIAN_POINT('',(0.,0.,0.03));
#1250=CARTESIAN_POINT('',(-0.0240556349186104,-0.0365556349186104,0.03));
#1251=CARTESIAN_POINT('',(-0.0240556349186104,-0.0365556349186104,0.0305));
#1252=CARTESIAN_POINT('',(-0.0224556349186104,-0.0365556349186104,0.0305));
#1253=CARTESIAN_POINT('',(-0.0240556349186104,-0.0365556349186104,0.0345));
#1254=CARTESIAN_POINT('',(-0.0224556349186104,-0.0365556349186104,0.0345));
#1255=CARTESIAN_POINT('',(0.,0.,0.03));
#1256=CARTESIAN_POINT('',(-0.0240556349186104,-0.0365556349186104,0.03));
#1257=CARTESIAN_POINT('',(-0.0229556349186104,-0.0365556349186104,0.03));
#1258=CARTESIAN_POINT('',(-0.0240556349186104,-0.0365556349186104,0.03));
#1259=CARTESIAN_POINT('',(0.0240556349186104,-0.0365556349186104,0.0345));
#1260=CARTESIAN_POINT('',(-0.0240556349186104,-0.0365556349186104,0.0345));
#1261=CARTESIAN_POINT('',(0.0240556349186104,0.0365556349186104,0.0345));
#1262=CARTESIAN_POINT('',(-0.0240556349186104,0.0365556349186104,0.0345));
#1263=CARTESIAN_POINT('',(0.,0.034,0.0145));
#1264=CARTESIAN_POINT('',(0.,0.0355,0.0145));
#1265=CARTESIAN_POINT('',(0.,0.0385,0.0145));
#1266=CARTESIAN_POINT('',(0.,0.0385,0.023));
#1267=CARTESIAN_POINT('',(0.,0.035,0.0145));
#1268=CARTESIAN_POINT('',(0.,0.0385,0.0145));
#1269=CARTESIAN_POINT('',(0.,0.039,0.0145));
#1270=CARTESIAN_POINT('',(-0.02575,-0.03825,0.006));
#1271=CARTESIAN_POINT('',(-0.02575,0.03825,0.006));
#1272=CARTESIAN_POINT('',(0.02575,0.03825,0.006));
#1273=CARTESIAN_POINT('',(0.02575,-0.03825,0.006));
#1274=CARTESIAN_POINT('',(0.02175,-0.03425,0.035));
#1275=CARTESIAN_POINT('',(0.02175,0.03425,0.035));
#1276=CARTESIAN_POINT('',(-0.02175,-0.03425,0.035));
#1277=CARTESIAN_POINT('',(-0.02175,0.03425,0.035));
#1278=CARTESIAN_POINT('',(3.46944695195361E-18,0.039,0.0175));
#1279=CARTESIAN_POINT('',(0.0095,0.039,0.0145));
#1280=CARTESIAN_POINT('',(0.0085,0.039,0.0145));
#1281=CARTESIAN_POINT('',(-0.0095,0.039,0.0145));
#1282=CARTESIAN_POINT('',(-0.0085,0.039,0.0145));
#1283=CARTESIAN_POINT('',(0.,0.039,0.0145));
#1284=CARTESIAN_POINT('',(0.,0.041,0.0145));
#1285=CARTESIAN_POINT('',(-0.0085,0.041,0.0145));
#1286=CARTESIAN_POINT('',(-0.0085,0.041,0.0145));
#1287=CARTESIAN_POINT('',(0.,0.041,0.0145));
#1288=CARTESIAN_POINT('',(0.0085,0.041,0.0145));
#1289=CARTESIAN_POINT('',(0.0085,0.041,0.0145));
#1290=CARTESIAN_POINT('',(-0.0095,0.041,0.0145));
#1291=CARTESIAN_POINT('',(-0.0105,0.041,0.0145));
#1292=CARTESIAN_POINT('',(-0.0105,0.04,0.0145));
#1293=CARTESIAN_POINT('',(0.,0.0505,0.0145));
#1294=CARTESIAN_POINT('',(-0.0095,0.041,0.0145));
#1295=CARTESIAN_POINT('',(-0.0095,0.041,0.0145));
#1296=CARTESIAN_POINT('',(0.,0.041,0.0145));
#1297=CARTESIAN_POINT('',(0.0105,0.041,0.0145));
#1298=CARTESIAN_POINT('',(0.0105,0.04,0.0145));
#1299=CARTESIAN_POINT('',(0.,0.04,0.0145));
#1300=CARTESIAN_POINT('',(0.0095,0.041,0.0145));
#1301=CARTESIAN_POINT('',(0.0095,0.041,0.0145));
#1302=CARTESIAN_POINT('',(0.0095,0.041,0.0145));
#1303=CARTESIAN_POINT('',(0.,0.0505,0.0145));
#1304=CARTESIAN_POINT('',(3.46944695195361E-18,0.041,0.0175));
#1305=CARTESIAN_POINT('',(0.,0.041,0.0145));
#1306=CARTESIAN_POINT('',(0.,0.041,0.0145));
#1307=CARTESIAN_POINT('',(0.0115,-0.029,0.002));
#1308=CARTESIAN_POINT('',(0.0115,-0.029,0.002));
#1309=CARTESIAN_POINT('',(0.0131,-0.029,0.002));
#1310=CARTESIAN_POINT('',(0.,0.,0.002));
#1311=CARTESIAN_POINT('',(-0.0115,0.029,0.002));
#1312=CARTESIAN_POINT('',(-0.0115,0.029,0.002));
#1313=CARTESIAN_POINT('',(-0.0099,0.029,0.002));
#1314=CARTESIAN_POINT('',(0.,0.,0.002));
#1315=CARTESIAN_POINT('',(0.0115,0.029,0.002));
#1316=CARTESIAN_POINT('',(0.0115,0.029,0.002));
#1317=CARTESIAN_POINT('',(0.0131,0.029,0.002));
#1318=CARTESIAN_POINT('',(0.,0.,0.002));
#1319=CARTESIAN_POINT('',(-0.0115,-0.029,0.002));
#1320=CARTESIAN_POINT('',(-0.0115,-0.029,0.002));
#1321=CARTESIAN_POINT('',(-0.0099,-0.029,0.002));
#1322=CARTESIAN_POINT('',(0.,0.,0.002));
#1323=MECHANICAL_DESIGN_GEOMETRIC_PRESENTATION_REPRESENTATION('',(#753),
#1324);
#1324=(
GEOMETRIC_REPRESENTATION_CONTEXT(3)
GLOBAL_UNCERTAINTY_ASSIGNED_CONTEXT((#1325))
GLOBAL_UNIT_ASSIGNED_CONTEXT((#1328,#1327,#1326))
REPRESENTATION_CONTEXT('Part 1','TOP_LEVEL_ASSEMBLY_PART')
);
#1325=UNCERTAINTY_MEASURE_WITH_UNIT(LENGTH_MEASURE(2.E-5),#1328,
'DISTANCE_ACCURACY_VALUE','Maximum Tolerance applied to model');
#1326=(
NAMED_UNIT(*)
SI_UNIT($,.STERADIAN.)
SOLID_ANGLE_UNIT()
);
#1327=(
NAMED_UNIT(*)
PLANE_ANGLE_UNIT()
SI_UNIT($,.RADIAN.)
);
#1328=(
LENGTH_UNIT()
NAMED_UNIT(*)
SI_UNIT($,.METRE.)
);
#1329=PRODUCT_DEFINITION_SHAPE('','',#1330);
#1330=PRODUCT_DEFINITION('','',#1332,#1331);
#1331=PRODUCT_DEFINITION_CONTEXT('',#1338,'design');
#1332=PRODUCT_DEFINITION_FORMATION_WITH_SPECIFIED_SOURCE('','',#1334,
 .NOT_KNOWN.);
#1333=PRODUCT_RELATED_PRODUCT_CATEGORY('','',(#1334));
#1334=PRODUCT('Part 1','Part 1','Part 1',(#1336));
#1335=PRODUCT_CATEGORY('','');
#1336=PRODUCT_CONTEXT('',#1338,'mechanical');
#1337=APPLICATION_PROTOCOL_DEFINITION('international standard',
'ap242_managed_model_based_3d_engineering',2020,#1338);
#1338=APPLICATION_CONTEXT('managed model based 3d engineering');
ENDSEC;
END-ISO-10303-21;
